<svg version="1.1" xmlns="http://www.w3.org/2000/svg" width="1466" height="500"><defs><clipPath id="XAEIELVfUCmE"><path fill="none" stroke="none" d="M 60.5 94.5 L 1436.5 94.5 L 1436.5 439.5 L 60.5 439.5 L 60.5 94.5"/></clipPath><clipPath id="mUmihaFDsNrE"><path fill="none" stroke="none" d="M 60.5 94.5 L 1436.5 94.5 L 1436.5 439.5 L 60.5 439.5 L 60.5 94.5"/></clipPath><clipPath id="LTIGMDehizTW"><path fill="none" stroke="none" d="M 60.5 94.5 L 1436.5 94.5 L 1436.5 439.5 L 60.5 439.5 L 60.5 94.5"/></clipPath><clipPath id="GGTPETgSVVWN"><path fill="none" stroke="none" d="M 60.5 94.5 L 1436.5 94.5 L 1436.5 439.5 L 60.5 439.5 L 60.5 94.5"/></clipPath><clipPath id="lIuoUfGsBzPc"><path fill="none" stroke="none" d="M 60.5 94.5 L 1436.5 94.5 L 1436.5 439.5 L 60.5 439.5 L 60.5 94.5"/></clipPath><clipPath id="mTxnrBwTtgok"><path fill="none" stroke="none" d="M 60.5 94.5 L 1436.5 94.5 L 1436.5 439.5 L 60.5 439.5 L 60.5 94.5"/></clipPath><clipPath id="rJEGBrlxlFcV"><path fill="none" stroke="none" d="M 60.5 94.5 L 1436.5 94.5 L 1436.5 439.5 L 60.5 439.5 L 60.5 94.5"/></clipPath><clipPath id="WlHfTZDCSqBG"><path fill="none" stroke="none" d="M 60.5 94.5 L 1436.5 94.5 L 1436.5 439.5 L 60.5 439.5 L 60.5 94.5"/></clipPath><clipPath id="RPfTOzTqEXiF"><path fill="none" stroke="none" d="M 60.5 94.5 L 1436.5 94.5 L 1436.5 439.5 L 60.5 439.5 L 60.5 94.5"/></clipPath><clipPath id="mGCgnAZhzguH"><path fill="none" stroke="none" d="M 60.5 94.5 L 1436.5 94.5 L 1436.5 439.5 L 60.5 439.5 L 60.5 94.5"/></clipPath><clipPath id="csnwgtGLCeWX"><path fill="none" stroke="none" d="M 60.5 94.5 L 1436.5 94.5 L 1436.5 439.5 L 60.5 439.5 L 60.5 94.5"/></clipPath><clipPath id="PZxPlxkkCmuT"><path fill="none" stroke="none" d="M 60.5 94.5 L 1436.5 94.5 L 1436.5 439.5 L 60.5 439.5 L 60.5 94.5"/></clipPath><clipPath id="vyEckyZIqSAm"><path fill="none" stroke="none" d="M 60.5 94.5 L 1436.5 94.5 L 1436.5 439.5 L 60.5 439.5 L 60.5 94.5"/></clipPath><clipPath id="AkmXtLIVZlXx"><path fill="none" stroke="none" d="M 60.5 94.5 L 1436.5 94.5 L 1436.5 439.5 L 60.5 439.5 L 60.5 94.5"/></clipPath><clipPath id="fvAFsWWcSWnm"><path fill="none" stroke="none" d="M 60.5 94.5 L 1436.5 94.5 L 1436.5 439.5 L 60.5 439.5 L 60.5 94.5"/></clipPath><clipPath id="WHJIBByzGwtC"><path fill="none" stroke="none" d="M 60.5 94.5 L 1436.5 94.5 L 1436.5 439.5 L 60.5 439.5 L 60.5 94.5"/></clipPath><clipPath id="QUKavaoTcaGG"><path fill="none" stroke="none" d="M 60.5 94.5 L 1436.5 94.5 L 1436.5 439.5 L 60.5 439.5 L 60.5 94.5"/></clipPath><clipPath id="DgkNvTZJycSL"><path fill="none" stroke="none" d="M 60.5 94.5 L 1436.5 94.5 L 1436.5 439.5 L 60.5 439.5 L 60.5 94.5"/></clipPath><clipPath id="QTlXCTpBJOPS"><path fill="none" stroke="none" d="M 60.5 94.5 L 1436.5 94.5 L 1436.5 439.5 L 60.5 439.5 L 60.5 94.5"/></clipPath></defs><path fill="rgb(255,255,255)" stroke="none" paint-order="stroke" d="M 0.5 0.5 L 1466.5 0.5 L 1466.5 500.5 L 0.5 500.5 L 0.5 0.5" fill-opacity="1"/><rect fill="#FFFFFF" stroke="none" x="60" y="94" width="1376" height="345" transform="matrix(1, 0, 0, 1, 0.5, 0.5)"/><path fill="rgb(255,255,255)" stroke="none" paint-order="stroke" d="M 60.5 94.5 L 1436.5 94.5 L 1436.5 439.5 L 60.5 439.5 L 60.5 94.5" fill-opacity="1"/><path fill="none" stroke="rgb(229,229,229)" paint-order="fill" d="M 60.5 94.5 L 1436.5 94.5 L 1436.5 439.5 L 60.5 439.5 L 60.5 94.5" stroke-opacity="1" stroke-linejoin="bevel" stroke-miterlimit="10" stroke-dasharray=""/><path fill="rgb(0,0,0)" stroke="rgb(0,0,0)" paint-order="fill" d="M 148.5 385.3227233886719 A 2 2 0 0 1 144.5 385.3227233886719 A 2 2 0 0 1 148.5 385.3227233886719" fill-opacity="1" clip-path="url(#LTIGMDehizTW)" stroke-opacity="1" stroke-linejoin="bevel" stroke-miterlimit="10" stroke-dasharray=""/><path fill="rgb(0,0,0)" stroke="rgb(0,0,0)" paint-order="fill" d="M 148.5 369.4582214355469 A 2 2 0 0 1 144.5 369.4582214355469 A 2 2 0 0 1 148.5 369.4582214355469" fill-opacity="1" clip-path="url(#LTIGMDehizTW)" stroke-opacity="1" stroke-linejoin="bevel" stroke-miterlimit="10" stroke-dasharray=""/><path fill="rgb(0,0,0)" stroke="rgb(0,0,0)" paint-order="fill" d="M 320.5 328.4749450683594 A 2 2 0 0 1 316.5 328.4749450683594 A 2 2 0 0 1 320.5 328.4749450683594" fill-opacity="1" clip-path="url(#LTIGMDehizTW)" stroke-opacity="1" stroke-linejoin="bevel" stroke-miterlimit="10" stroke-dasharray=""/><path fill="rgb(0,0,0)" stroke="rgb(0,0,0)" paint-order="fill" d="M 664.5 254.4405975341797 A 2 2 0 0 1 660.5 254.4405975341797 A 2 2 0 0 1 664.5 254.4405975341797" fill-opacity="1" clip-path="url(#LTIGMDehizTW)" stroke-opacity="1" stroke-linejoin="bevel" stroke-miterlimit="10" stroke-dasharray=""/><path fill="none" stroke="rgb(0,0,0)" paint-order="fill" d="M 146.5 401.1872253417969 L 146.5 401.1872253417969" stroke-opacity="1" stroke-linejoin="bevel" stroke-miterlimit="10" stroke-dasharray="" clip-path="url(#GGTPETgSVVWN)"/><path fill="none" stroke="rgb(0,0,0)" paint-order="fill" d="M 318.5 372.1023254394531 L 318.5 379.37353515625" stroke-opacity="1" stroke-linejoin="bevel" stroke-miterlimit="10" stroke-dasharray="" clip-path="url(#GGTPETgSVVWN)"/><path fill="none" stroke="rgb(0,0,0)" paint-order="fill" d="M 490.5 357.5598449707031 L 490.5 357.5598449707031" stroke-opacity="1" stroke-linejoin="bevel" stroke-miterlimit="10" stroke-dasharray="" clip-path="url(#GGTPETgSVVWN)"/><path fill="none" stroke="rgb(0,0,0)" paint-order="fill" d="M 662.5 321.8647155761719 L 662.5 321.8647155761719" stroke-opacity="1" stroke-linejoin="bevel" stroke-miterlimit="10" stroke-dasharray="" clip-path="url(#GGTPETgSVVWN)"/><path fill="none" stroke="rgb(0,0,0)" paint-order="fill" d="M 834.5 261.0508117675781 L 834.5 286.16961669921875" stroke-opacity="1" stroke-linejoin="bevel" stroke-miterlimit="10" stroke-dasharray="" clip-path="url(#GGTPETgSVVWN)"/><path fill="none" stroke="rgb(0,0,0)" paint-order="fill" d="M 1006.5 214.77935791015625 L 1006.5 256.4236602783203" stroke-opacity="1" stroke-linejoin="bevel" stroke-miterlimit="10" stroke-dasharray="" clip-path="url(#GGTPETgSVVWN)"/><path fill="none" stroke="rgb(0,0,0)" paint-order="fill" d="M 1178.5 187.0164794921875 L 1178.5 219.406494140625" stroke-opacity="1" stroke-linejoin="bevel" stroke-miterlimit="10" stroke-dasharray="" clip-path="url(#GGTPETgSVVWN)"/><path fill="none" stroke="rgb(0,0,0)" paint-order="fill" d="M 1350.5 112.98213958740234 L 1350.5 112.98213958740234" stroke-opacity="1" stroke-linejoin="bevel" stroke-miterlimit="10" stroke-dasharray="" clip-path="url(#GGTPETgSVVWN)"/><path fill="none" stroke="rgb(0,0,0)" paint-order="fill" d="M 146.5 419.69580078125 L 146.5 411.7635803222656" stroke-opacity="1" stroke-linejoin="bevel" stroke-miterlimit="10" stroke-dasharray="" clip-path="url(#lIuoUfGsBzPc)"/><path fill="none" stroke="rgb(0,0,0)" paint-order="fill" d="M 318.5 421.0178527832031 L 318.5 411.43304443359375" stroke-opacity="1" stroke-linejoin="bevel" stroke-miterlimit="10" stroke-dasharray="" clip-path="url(#lIuoUfGsBzPc)"/><path fill="none" stroke="rgb(0,0,0)" paint-order="fill" d="M 490.5 357.5598449707031 L 490.5 357.5598449707031" stroke-opacity="1" stroke-linejoin="bevel" stroke-miterlimit="10" stroke-dasharray="" clip-path="url(#lIuoUfGsBzPc)"/><path fill="none" stroke="rgb(0,0,0)" paint-order="fill" d="M 662.5 373.4243469238281 L 662.5 357.5598449707031" stroke-opacity="1" stroke-linejoin="bevel" stroke-miterlimit="10" stroke-dasharray="" clip-path="url(#lIuoUfGsBzPc)"/><path fill="none" stroke="rgb(0,0,0)" paint-order="fill" d="M 834.5 336.4071960449219 L 834.5 311.9494323730469" stroke-opacity="1" stroke-linejoin="bevel" stroke-miterlimit="10" stroke-dasharray="" clip-path="url(#lIuoUfGsBzPc)"/><path fill="none" stroke="rgb(0,0,0)" paint-order="fill" d="M 1006.5 307.322265625 L 1006.5 302.69512939453125" stroke-opacity="1" stroke-linejoin="bevel" stroke-miterlimit="10" stroke-dasharray="" clip-path="url(#lIuoUfGsBzPc)"/><path fill="none" stroke="rgb(0,0,0)" paint-order="fill" d="M 1178.5 299.3900146484375 L 1178.5 275.59326171875" stroke-opacity="1" stroke-linejoin="bevel" stroke-miterlimit="10" stroke-dasharray="" clip-path="url(#lIuoUfGsBzPc)"/><path fill="none" stroke="rgb(0,0,0)" paint-order="fill" d="M 1350.5 112.98213958740234 L 1350.5 112.98213958740234" stroke-opacity="1" stroke-linejoin="bevel" stroke-miterlimit="10" stroke-dasharray="" clip-path="url(#lIuoUfGsBzPc)"/><path fill="none" stroke="rgb(0,0,0)" paint-order="fill" d="M 112.0999984741211 419.69580078125 L 180.89999389648438 419.69580078125" stroke-opacity="1" stroke-linejoin="bevel" stroke-miterlimit="10" stroke-dasharray="" clip-path="url(#mTxnrBwTtgok)"/><path fill="none" stroke="rgb(0,0,0)" paint-order="fill" d="M 284.1000061035156 421.0178527832031 L 352.8999938964844 421.0178527832031" stroke-opacity="1" stroke-linejoin="bevel" stroke-miterlimit="10" stroke-dasharray="" clip-path="url(#mTxnrBwTtgok)"/><path fill="none" stroke="rgb(0,0,0)" paint-order="fill" d="M 456.1000061035156 357.5598449707031 L 524.9000244140625 357.5598449707031" stroke-opacity="1" stroke-linejoin="bevel" stroke-miterlimit="10" stroke-dasharray="" clip-path="url(#mTxnrBwTtgok)"/><path fill="none" stroke="rgb(0,0,0)" paint-order="fill" d="M 628.0999755859375 373.4243469238281 L 696.9000244140625 373.4243469238281" stroke-opacity="1" stroke-linejoin="bevel" stroke-miterlimit="10" stroke-dasharray="" clip-path="url(#mTxnrBwTtgok)"/><path fill="none" stroke="rgb(0,0,0)" paint-order="fill" d="M 800.1000366210938 336.4071960449219 L 868.8999633789062 336.4071960449219" stroke-opacity="1" stroke-linejoin="bevel" stroke-miterlimit="10" stroke-dasharray="" clip-path="url(#mTxnrBwTtgok)"/><path fill="none" stroke="rgb(0,0,0)" paint-order="fill" d="M 972.1000366210938 307.322265625 L 1040.9000244140625 307.322265625" stroke-opacity="1" stroke-linejoin="bevel" stroke-miterlimit="10" stroke-dasharray="" clip-path="url(#mTxnrBwTtgok)"/><path fill="none" stroke="rgb(0,0,0)" paint-order="fill" d="M 1144.0999755859375 299.3900146484375 L 1212.9000244140625 299.3900146484375" stroke-opacity="1" stroke-linejoin="bevel" stroke-miterlimit="10" stroke-dasharray="" clip-path="url(#mTxnrBwTtgok)"/><path fill="none" stroke="rgb(0,0,0)" paint-order="fill" d="M 1316.0999755859375 112.98213958740234 L 1384.9000244140625 112.98213958740234" stroke-opacity="1" stroke-linejoin="bevel" stroke-miterlimit="10" stroke-dasharray="" clip-path="url(#mTxnrBwTtgok)"/><path fill="none" stroke="rgb(0,0,0)" paint-order="fill" d="M 112.0999984741211 401.1872253417969 L 180.89999389648438 401.1872253417969" stroke-opacity="1" stroke-linejoin="bevel" stroke-miterlimit="10" stroke-dasharray="" clip-path="url(#rJEGBrlxlFcV)"/><path fill="none" stroke="rgb(0,0,0)" paint-order="fill" d="M 284.1000061035156 372.1023254394531 L 352.8999938964844 372.1023254394531" stroke-opacity="1" stroke-linejoin="bevel" stroke-miterlimit="10" stroke-dasharray="" clip-path="url(#rJEGBrlxlFcV)"/><path fill="none" stroke="rgb(0,0,0)" paint-order="fill" d="M 456.1000061035156 357.5598449707031 L 524.9000244140625 357.5598449707031" stroke-opacity="1" stroke-linejoin="bevel" stroke-miterlimit="10" stroke-dasharray="" clip-path="url(#rJEGBrlxlFcV)"/><path fill="none" stroke="rgb(0,0,0)" paint-order="fill" d="M 628.0999755859375 321.8647155761719 L 696.9000244140625 321.8647155761719" stroke-opacity="1" stroke-linejoin="bevel" stroke-miterlimit="10" stroke-dasharray="" clip-path="url(#rJEGBrlxlFcV)"/><path fill="none" stroke="rgb(0,0,0)" paint-order="fill" d="M 800.1000366210938 261.0508117675781 L 868.8999633789062 261.0508117675781" stroke-opacity="1" stroke-linejoin="bevel" stroke-miterlimit="10" stroke-dasharray="" clip-path="url(#rJEGBrlxlFcV)"/><path fill="none" stroke="rgb(0,0,0)" paint-order="fill" d="M 972.1000366210938 214.77935791015625 L 1040.9000244140625 214.77935791015625" stroke-opacity="1" stroke-linejoin="bevel" stroke-miterlimit="10" stroke-dasharray="" clip-path="url(#rJEGBrlxlFcV)"/><path fill="none" stroke="rgb(0,0,0)" paint-order="fill" d="M 1144.0999755859375 187.0164794921875 L 1212.9000244140625 187.0164794921875" stroke-opacity="1" stroke-linejoin="bevel" stroke-miterlimit="10" stroke-dasharray="" clip-path="url(#rJEGBrlxlFcV)"/><path fill="none" stroke="rgb(0,0,0)" paint-order="fill" d="M 1316.0999755859375 112.98213958740234 L 1384.9000244140625 112.98213958740234" stroke-opacity="1" stroke-linejoin="bevel" stroke-miterlimit="10" stroke-dasharray="" clip-path="url(#rJEGBrlxlFcV)"/><path fill="rgb(99,197,218)" stroke="rgb(0,0,0)" paint-order="fill" d="M 86.30000305175781 406.47540283203125 L 206.6999969482422 406.47540283203125 L 206.6999969482422 401.1872253417969 L 86.30000305175781 401.1872253417969 L 86.30000305175781 406.47540283203125" fill-opacity="1" clip-path="url(#WlHfTZDCSqBG)" stroke-opacity="1" stroke-linejoin="bevel" stroke-miterlimit="10" stroke-dasharray=""/><path fill="rgb(99,197,218)" stroke="rgb(0,0,0)" paint-order="fill" d="M 258.29998779296875 405.81439208984375 L 378.70001220703125 405.81439208984375 L 378.70001220703125 379.37353515625 L 258.29998779296875 379.37353515625 L 258.29998779296875 405.81439208984375" fill-opacity="1" clip-path="url(#WlHfTZDCSqBG)" stroke-opacity="1" stroke-linejoin="bevel" stroke-miterlimit="10" stroke-dasharray=""/><path fill="rgb(99,197,218)" stroke="rgb(0,0,0)" paint-order="fill" d="M 430.29998779296875 357.5598449707031 L 550.7000122070312 357.5598449707031 L 550.7000122070312 357.5598449707031 L 430.29998779296875 357.5598449707031 L 430.29998779296875 357.5598449707031" fill-opacity="1" clip-path="url(#WlHfTZDCSqBG)" stroke-opacity="1" stroke-linejoin="bevel" stroke-miterlimit="10" stroke-dasharray=""/><path fill="rgb(99,197,218)" stroke="rgb(0,0,0)" paint-order="fill" d="M 602.2999877929688 348.3055725097656 L 722.7000122070312 348.3055725097656 L 722.7000122070312 321.8647155761719 L 602.2999877929688 321.8647155761719 L 602.2999877929688 348.3055725097656" fill-opacity="1" clip-path="url(#WlHfTZDCSqBG)" stroke-opacity="1" stroke-linejoin="bevel" stroke-miterlimit="10" stroke-dasharray=""/><path fill="rgb(99,197,218)" stroke="rgb(0,0,0)" paint-order="fill" d="M 774.2999877929688 294.10186767578125 L 894.7000122070312 294.10186767578125 L 894.7000122070312 286.16961669921875 L 774.2999877929688 286.16961669921875 L 774.2999877929688 294.10186767578125" fill-opacity="1" clip-path="url(#WlHfTZDCSqBG)" stroke-opacity="1" stroke-linejoin="bevel" stroke-miterlimit="10" stroke-dasharray=""/><path fill="rgb(99,197,218)" stroke="rgb(0,0,0)" paint-order="fill" d="M 946.2999877929688 298.0679931640625 L 1066.699951171875 298.0679931640625 L 1066.699951171875 256.4236602783203 L 946.2999877929688 256.4236602783203 L 946.2999877929688 298.0679931640625" fill-opacity="1" clip-path="url(#WlHfTZDCSqBG)" stroke-opacity="1" stroke-linejoin="bevel" stroke-miterlimit="10" stroke-dasharray=""/><path fill="rgb(99,197,218)" stroke="rgb(0,0,0)" paint-order="fill" d="M 1118.300048828125 251.79652404785156 L 1238.699951171875 251.79652404785156 L 1238.699951171875 219.406494140625 L 1118.300048828125 219.406494140625 L 1118.300048828125 251.79652404785156" fill-opacity="1" clip-path="url(#WlHfTZDCSqBG)" stroke-opacity="1" stroke-linejoin="bevel" stroke-miterlimit="10" stroke-dasharray=""/><path fill="rgb(99,197,218)" stroke="rgb(0,0,0)" paint-order="fill" d="M 1290.300048828125 112.98213958740234 L 1410.699951171875 112.98213958740234 L 1410.699951171875 112.98213958740234 L 1290.300048828125 112.98213958740234 L 1290.300048828125 112.98213958740234" fill-opacity="1" clip-path="url(#WlHfTZDCSqBG)" stroke-opacity="1" stroke-linejoin="bevel" stroke-miterlimit="10" stroke-dasharray=""/><path fill="rgb(99,197,218)" stroke="rgb(0,0,0)" paint-order="fill" d="M 86.30000305175781 411.7635803222656 L 206.6999969482422 411.7635803222656 L 206.6999969482422 406.47540283203125 L 86.30000305175781 406.47540283203125 L 86.30000305175781 411.7635803222656" fill-opacity="1" clip-path="url(#RPfTOzTqEXiF)" stroke-opacity="1" stroke-linejoin="bevel" stroke-miterlimit="10" stroke-dasharray=""/><path fill="rgb(99,197,218)" stroke="rgb(0,0,0)" paint-order="fill" d="M 258.29998779296875 411.43304443359375 L 378.70001220703125 411.43304443359375 L 378.70001220703125 405.81439208984375 L 258.29998779296875 405.81439208984375 L 258.29998779296875 411.43304443359375" fill-opacity="1" clip-path="url(#RPfTOzTqEXiF)" stroke-opacity="1" stroke-linejoin="bevel" stroke-miterlimit="10" stroke-dasharray=""/><path fill="rgb(99,197,218)" stroke="rgb(0,0,0)" paint-order="fill" d="M 430.29998779296875 357.5598449707031 L 550.7000122070312 357.5598449707031 L 550.7000122070312 357.5598449707031 L 430.29998779296875 357.5598449707031 L 430.29998779296875 357.5598449707031" fill-opacity="1" clip-path="url(#RPfTOzTqEXiF)" stroke-opacity="1" stroke-linejoin="bevel" stroke-miterlimit="10" stroke-dasharray=""/><path fill="rgb(99,197,218)" stroke="rgb(0,0,0)" paint-order="fill" d="M 602.2999877929688 357.5598449707031 L 722.7000122070312 357.5598449707031 L 722.7000122070312 348.3055725097656 L 602.2999877929688 348.3055725097656 L 602.2999877929688 357.5598449707031" fill-opacity="1" clip-path="url(#RPfTOzTqEXiF)" stroke-opacity="1" stroke-linejoin="bevel" stroke-miterlimit="10" stroke-dasharray=""/><path fill="rgb(99,197,218)" stroke="rgb(0,0,0)" paint-order="fill" d="M 774.2999877929688 311.9494323730469 L 894.7000122070312 311.9494323730469 L 894.7000122070312 294.10186767578125 L 774.2999877929688 294.10186767578125 L 774.2999877929688 311.9494323730469" fill-opacity="1" clip-path="url(#RPfTOzTqEXiF)" stroke-opacity="1" stroke-linejoin="bevel" stroke-miterlimit="10" stroke-dasharray=""/><path fill="rgb(99,197,218)" stroke="rgb(0,0,0)" paint-order="fill" d="M 946.2999877929688 302.69512939453125 L 1066.699951171875 302.69512939453125 L 1066.699951171875 298.0679931640625 L 946.2999877929688 298.0679931640625 L 946.2999877929688 302.69512939453125" fill-opacity="1" clip-path="url(#RPfTOzTqEXiF)" stroke-opacity="1" stroke-linejoin="bevel" stroke-miterlimit="10" stroke-dasharray=""/><path fill="rgb(99,197,218)" stroke="rgb(0,0,0)" paint-order="fill" d="M 1118.300048828125 275.59326171875 L 1238.699951171875 275.59326171875 L 1238.699951171875 251.79652404785156 L 1118.300048828125 251.79652404785156 L 1118.300048828125 275.59326171875" fill-opacity="1" clip-path="url(#RPfTOzTqEXiF)" stroke-opacity="1" stroke-linejoin="bevel" stroke-miterlimit="10" stroke-dasharray=""/><path fill="rgb(99,197,218)" stroke="rgb(0,0,0)" paint-order="fill" d="M 1290.300048828125 112.98213958740234 L 1410.699951171875 112.98213958740234 L 1410.699951171875 112.98213958740234 L 1290.300048828125 112.98213958740234 L 1290.300048828125 112.98213958740234" fill-opacity="1" clip-path="url(#RPfTOzTqEXiF)" stroke-opacity="1" stroke-linejoin="bevel" stroke-miterlimit="10" stroke-dasharray=""/><path fill="rgb(48,162,218)" stroke="rgb(0,0,0)" paint-order="fill" d="M 158.33457946777344 385.3227233886719 A 6 6 0 0 1 146.33457946777344 385.3227233886719 A 6 6 0 0 1 158.33457946777344 385.3227233886719" fill-opacity="1" clip-path="url(#mGCgnAZhzguH)" stroke-opacity="1" stroke-linejoin="bevel" stroke-miterlimit="10" stroke-dasharray=""/><path fill="rgb(48,162,218)" stroke="rgb(0,0,0)" paint-order="fill" d="M 314.0373229980469 328.4749450683594 A 6 6 0 0 1 302.0373229980469 328.4749450683594 A 6 6 0 0 1 314.0373229980469 328.4749450683594" fill-opacity="1" clip-path="url(#mGCgnAZhzguH)" stroke-opacity="1" stroke-linejoin="bevel" stroke-miterlimit="10" stroke-dasharray=""/><path fill="rgb(48,162,218)" stroke="rgb(0,0,0)" paint-order="fill" d="M 834.4450073242188 261.0508117675781 A 6 6 0 0 1 822.4450073242188 261.0508117675781 A 6 6 0 0 1 834.4450073242188 261.0508117675781" fill-opacity="1" clip-path="url(#mGCgnAZhzguH)" stroke-opacity="1" stroke-linejoin="bevel" stroke-miterlimit="10" stroke-dasharray=""/><path fill="rgb(48,162,218)" stroke="rgb(0,0,0)" paint-order="fill" d="M 1181.42236328125 187.0164794921875 A 6 6 0 0 1 1169.42236328125 187.0164794921875 A 6 6 0 0 1 1181.42236328125 187.0164794921875" fill-opacity="1" clip-path="url(#mGCgnAZhzguH)" stroke-opacity="1" stroke-linejoin="bevel" stroke-miterlimit="10" stroke-dasharray=""/><path fill="rgb(48,162,218)" stroke="rgb(0,0,0)" paint-order="fill" d="M 1363.1409912109375 112.98213958740234 A 6 6 0 0 1 1351.1409912109375 112.98213958740234 A 6 6 0 0 1 1363.1409912109375 112.98213958740234" fill-opacity="1" clip-path="url(#mGCgnAZhzguH)" stroke-opacity="1" stroke-linejoin="bevel" stroke-miterlimit="10" stroke-dasharray=""/><path fill="rgb(252,79,48)" stroke="rgb(0,0,0)" paint-order="fill" d="M 140.9042510986328 406.47540283203125 A 6 6 0 0 1 128.9042510986328 406.47540283203125 A 6 6 0 0 1 140.9042510986328 406.47540283203125" fill-opacity="1" clip-path="url(#csnwgtGLCeWX)" stroke-opacity="1" stroke-linejoin="bevel" stroke-miterlimit="10" stroke-dasharray=""/><path fill="rgb(252,79,48)" stroke="rgb(0,0,0)" paint-order="fill" d="M 308.84423828125 410.4415283203125 A 6 6 0 0 1 296.84423828125 410.4415283203125 A 6 6 0 0 1 308.84423828125 410.4415283203125" fill-opacity="1" clip-path="url(#csnwgtGLCeWX)" stroke-opacity="1" stroke-linejoin="bevel" stroke-miterlimit="10" stroke-dasharray=""/><path fill="rgb(252,79,48)" stroke="rgb(0,0,0)" paint-order="fill" d="M 828.7865600585938 336.4071960449219 A 6 6 0 0 1 816.7865600585938 336.4071960449219 A 6 6 0 0 1 828.7865600585938 336.4071960449219" fill-opacity="1" clip-path="url(#csnwgtGLCeWX)" stroke-opacity="1" stroke-linejoin="bevel" stroke-miterlimit="10" stroke-dasharray=""/><path fill="rgb(252,79,48)" stroke="rgb(0,0,0)" paint-order="fill" d="M 1023.4354248046875 307.322265625 A 6 6 0 0 1 1011.4354248046875 307.322265625 A 6 6 0 0 1 1023.4354248046875 307.322265625" fill-opacity="1" clip-path="url(#csnwgtGLCeWX)" stroke-opacity="1" stroke-linejoin="bevel" stroke-miterlimit="10" stroke-dasharray=""/><path fill="rgb(229,174,56)" stroke="rgb(0,0,0)" paint-order="fill" d="M 153.82296752929688 405.1533508300781 A 6 6 0 0 1 141.82296752929688 405.1533508300781 A 6 6 0 0 1 153.82296752929688 405.1533508300781" fill-opacity="1" clip-path="url(#PZxPlxkkCmuT)" stroke-opacity="1" stroke-linejoin="bevel" stroke-miterlimit="10" stroke-dasharray=""/><path fill="rgb(229,174,56)" stroke="rgb(0,0,0)" paint-order="fill" d="M 314.2832336425781 411.7635803222656 A 6 6 0 0 1 302.2832336425781 411.7635803222656 A 6 6 0 0 1 314.2832336425781 411.7635803222656" fill-opacity="1" clip-path="url(#PZxPlxkkCmuT)" stroke-opacity="1" stroke-linejoin="bevel" stroke-miterlimit="10" stroke-dasharray=""/><path fill="rgb(229,174,56)" stroke="rgb(0,0,0)" paint-order="fill" d="M 661.7206420898438 357.5598449707031 A 6 6 0 0 1 649.7206420898438 357.5598449707031 A 6 6 0 0 1 661.7206420898438 357.5598449707031" fill-opacity="1" clip-path="url(#PZxPlxkkCmuT)" stroke-opacity="1" stroke-linejoin="bevel" stroke-miterlimit="10" stroke-dasharray=""/><path fill="rgb(229,174,56)" stroke="rgb(0,0,0)" paint-order="fill" d="M 839.7083740234375 327.15289306640625 A 6 6 0 0 1 827.7083740234375 327.15289306640625 A 6 6 0 0 1 839.7083740234375 327.15289306640625" fill-opacity="1" clip-path="url(#PZxPlxkkCmuT)" stroke-opacity="1" stroke-linejoin="bevel" stroke-miterlimit="10" stroke-dasharray=""/><path fill="rgb(229,174,56)" stroke="rgb(0,0,0)" paint-order="fill" d="M 995.8622436523438 298.0679931640625 A 6 6 0 0 1 983.8622436523438 298.0679931640625 A 6 6 0 0 1 995.8622436523438 298.0679931640625" fill-opacity="1" clip-path="url(#PZxPlxkkCmuT)" stroke-opacity="1" stroke-linejoin="bevel" stroke-miterlimit="10" stroke-dasharray=""/><path fill="rgb(229,174,56)" stroke="rgb(0,0,0)" paint-order="fill" d="M 1176.031982421875 251.79652404785156 A 6 6 0 0 1 1164.031982421875 251.79652404785156 A 6 6 0 0 1 1176.031982421875 251.79652404785156" fill-opacity="1" clip-path="url(#PZxPlxkkCmuT)" stroke-opacity="1" stroke-linejoin="bevel" stroke-miterlimit="10" stroke-dasharray=""/><path fill="rgb(109,144,79)" stroke="rgb(0,0,0)" paint-order="fill" d="M 158.693115234375 401.1872253417969 A 6 6 0 0 1 146.693115234375 401.1872253417969 A 6 6 0 0 1 158.693115234375 401.1872253417969" fill-opacity="1" clip-path="url(#vyEckyZIqSAm)" stroke-opacity="1" stroke-linejoin="bevel" stroke-miterlimit="10" stroke-dasharray=""/><path fill="rgb(109,144,79)" stroke="rgb(0,0,0)" paint-order="fill" d="M 337.5337829589844 401.1872253417969 A 6 6 0 0 1 325.5337829589844 401.1872253417969 A 6 6 0 0 1 337.5337829589844 401.1872253417969" fill-opacity="1" clip-path="url(#vyEckyZIqSAm)" stroke-opacity="1" stroke-linejoin="bevel" stroke-miterlimit="10" stroke-dasharray=""/><path fill="rgb(109,144,79)" stroke="rgb(0,0,0)" paint-order="fill" d="M 676.0025634765625 348.3055725097656 A 6 6 0 0 1 664.0025634765625 348.3055725097656 A 6 6 0 0 1 676.0025634765625 348.3055725097656" fill-opacity="1" clip-path="url(#vyEckyZIqSAm)" stroke-opacity="1" stroke-linejoin="bevel" stroke-miterlimit="10" stroke-dasharray=""/><path fill="rgb(109,144,79)" stroke="rgb(0,0,0)" paint-order="fill" d="M 852.5977783203125 294.10186767578125 A 6 6 0 0 1 840.5977783203125 294.10186767578125 A 6 6 0 0 1 852.5977783203125 294.10186767578125" fill-opacity="1" clip-path="url(#vyEckyZIqSAm)" stroke-opacity="1" stroke-linejoin="bevel" stroke-miterlimit="10" stroke-dasharray=""/><path fill="rgb(139,139,139)" stroke="rgb(0,0,0)" paint-order="fill" d="M 137.9647216796875 419.69580078125 A 6 6 0 0 1 125.9647216796875 419.69580078125 A 6 6 0 0 1 137.9647216796875 419.69580078125" fill-opacity="1" clip-path="url(#AkmXtLIVZlXx)" stroke-opacity="1" stroke-linejoin="bevel" stroke-miterlimit="10" stroke-dasharray=""/><path fill="rgb(139,139,139)" stroke="rgb(0,0,0)" paint-order="fill" d="M 308.0663146972656 421.0178527832031 A 6 6 0 0 1 296.0663146972656 421.0178527832031 A 6 6 0 0 1 308.0663146972656 421.0178527832031" fill-opacity="1" clip-path="url(#AkmXtLIVZlXx)" stroke-opacity="1" stroke-linejoin="bevel" stroke-miterlimit="10" stroke-dasharray=""/><path fill="rgb(139,139,139)" stroke="rgb(0,0,0)" paint-order="fill" d="M 684.2406005859375 373.4243469238281 A 6 6 0 0 1 672.2406005859375 373.4243469238281 A 6 6 0 0 1 684.2406005859375 373.4243469238281" fill-opacity="1" clip-path="url(#AkmXtLIVZlXx)" stroke-opacity="1" stroke-linejoin="bevel" stroke-miterlimit="10" stroke-dasharray=""/><path fill="rgb(139,139,139)" stroke="rgb(0,0,0)" paint-order="fill" d="M 840.3639526367188 286.16961669921875 A 6 6 0 0 1 828.3639526367188 286.16961669921875 A 6 6 0 0 1 840.3639526367188 286.16961669921875" fill-opacity="1" clip-path="url(#AkmXtLIVZlXx)" stroke-opacity="1" stroke-linejoin="bevel" stroke-miterlimit="10" stroke-dasharray=""/><path fill="rgb(23,190,207)" stroke="rgb(0,0,0)" paint-order="fill" d="M 150.39663696289062 414.40765380859375 A 6 6 0 0 1 138.39663696289062 414.40765380859375 A 6 6 0 0 1 150.39663696289062 414.40765380859375" fill-opacity="1" clip-path="url(#fvAFsWWcSWnm)" stroke-opacity="1" stroke-linejoin="bevel" stroke-miterlimit="10" stroke-dasharray=""/><path fill="rgb(23,190,207)" stroke="rgb(0,0,0)" paint-order="fill" d="M 1187.13134765625 299.3900146484375 A 6 6 0 0 1 1175.13134765625 299.3900146484375 A 6 6 0 0 1 1187.13134765625 299.3900146484375" fill-opacity="1" clip-path="url(#fvAFsWWcSWnm)" stroke-opacity="1" stroke-linejoin="bevel" stroke-miterlimit="10" stroke-dasharray=""/><path fill="rgb(148,103,189)" stroke="rgb(0,0,0)" paint-order="fill" d="M 156.80810546875 411.7635803222656 A 6 6 0 0 1 144.80810546875 411.7635803222656 A 6 6 0 0 1 156.80810546875 411.7635803222656" fill-opacity="1" clip-path="url(#WHJIBByzGwtC)" stroke-opacity="1" stroke-linejoin="bevel" stroke-miterlimit="10" stroke-dasharray=""/><path fill="rgb(148,103,189)" stroke="rgb(0,0,0)" paint-order="fill" d="M 497.6822509765625 357.5598449707031 A 6 6 0 0 1 485.6822509765625 357.5598449707031 A 6 6 0 0 1 497.6822509765625 357.5598449707031" fill-opacity="1" clip-path="url(#WHJIBByzGwtC)" stroke-opacity="1" stroke-linejoin="bevel" stroke-miterlimit="10" stroke-dasharray=""/><path fill="rgb(148,103,189)" stroke="rgb(0,0,0)" paint-order="fill" d="M 853.8897094726562 296.7459411621094 A 6 6 0 0 1 841.8897094726562 296.7459411621094 A 6 6 0 0 1 853.8897094726562 296.7459411621094" fill-opacity="1" clip-path="url(#WHJIBByzGwtC)" stroke-opacity="1" stroke-linejoin="bevel" stroke-miterlimit="10" stroke-dasharray=""/><path fill="rgb(214,39,40)" stroke="rgb(0,0,0)" paint-order="fill" d="M 154.9845428466797 410.4415283203125 A 6 6 0 0 1 142.9845428466797 410.4415283203125 A 6 6 0 0 1 154.9845428466797 410.4415283203125" fill-opacity="1" clip-path="url(#QUKavaoTcaGG)" stroke-opacity="1" stroke-linejoin="bevel" stroke-miterlimit="10" stroke-dasharray=""/><path fill="rgb(214,39,40)" stroke="rgb(0,0,0)" paint-order="fill" d="M 310.33917236328125 372.1023254394531 A 6 6 0 0 1 298.33917236328125 372.1023254394531 A 6 6 0 0 1 310.33917236328125 372.1023254394531" fill-opacity="1" clip-path="url(#QUKavaoTcaGG)" stroke-opacity="1" stroke-linejoin="bevel" stroke-miterlimit="10" stroke-dasharray=""/><path fill="rgb(214,39,40)" stroke="rgb(0,0,0)" paint-order="fill" d="M 683.9310302734375 321.8647155761719 A 6 6 0 0 1 671.9310302734375 321.8647155761719 A 6 6 0 0 1 683.9310302734375 321.8647155761719" fill-opacity="1" clip-path="url(#QUKavaoTcaGG)" stroke-opacity="1" stroke-linejoin="bevel" stroke-miterlimit="10" stroke-dasharray=""/><path fill="rgb(214,39,40)" stroke="rgb(0,0,0)" paint-order="fill" d="M 847.2337646484375 286.16961669921875 A 6 6 0 0 1 835.2337646484375 286.16961669921875 A 6 6 0 0 1 847.2337646484375 286.16961669921875" fill-opacity="1" clip-path="url(#QUKavaoTcaGG)" stroke-opacity="1" stroke-linejoin="bevel" stroke-miterlimit="10" stroke-dasharray=""/><path fill="rgb(31,119,180)" stroke="rgb(0,0,0)" paint-order="fill" d="M 137.16961669921875 369.4582214355469 A 6 6 0 0 1 125.16961669921875 369.4582214355469 A 6 6 0 0 1 137.16961669921875 369.4582214355469" fill-opacity="1" clip-path="url(#DgkNvTZJycSL)" stroke-opacity="1" stroke-linejoin="bevel" stroke-miterlimit="10" stroke-dasharray=""/><path fill="rgb(31,119,180)" stroke="rgb(0,0,0)" paint-order="fill" d="M 667.901611328125 254.4405975341797 A 6 6 0 0 1 655.901611328125 254.4405975341797 A 6 6 0 0 1 667.901611328125 254.4405975341797" fill-opacity="1" clip-path="url(#DgkNvTZJycSL)" stroke-opacity="1" stroke-linejoin="bevel" stroke-miterlimit="10" stroke-dasharray=""/><path fill="rgb(31,119,180)" stroke="rgb(0,0,0)" paint-order="fill" d="M 1001.30029296875 214.77935791015625 A 6 6 0 0 1 989.30029296875 214.77935791015625 A 6 6 0 0 1 1001.30029296875 214.77935791015625" fill-opacity="1" clip-path="url(#DgkNvTZJycSL)" stroke-opacity="1" stroke-linejoin="bevel" stroke-miterlimit="10" stroke-dasharray=""/><path fill="none" stroke="rgb(0,0,0)" paint-order="fill" d="M 60.5 439.5 L 1436.5 439.5" stroke-opacity="1" stroke-linejoin="bevel" stroke-miterlimit="10" stroke-dasharray=""/><path fill="none" stroke="rgb(0,0,0)" paint-order="fill" d="M 146.5 445.5 L 146.5 437.5 M 318.5 445.5 L 318.5 437.5 M 490.5 445.5 L 490.5 437.5 M 662.5 445.5 L 662.5 437.5 M 834.5 445.5 L 834.5 437.5 M 1006.5 445.5 L 1006.5 437.5 M 1178.5 445.5 L 1178.5 437.5 M 1350.5 445.5 L 1350.5 437.5" stroke-opacity="1" stroke-linejoin="bevel" stroke-miterlimit="10" stroke-dasharray=""/><path fill="none" stroke="rgb(0,0,0)" paint-order="fill" d="" stroke-opacity="1" stroke-linejoin="bevel" stroke-miterlimit="10" stroke-dasharray=""/><text fill="rgb(68,68,68)" stroke="none" font-family="helvetica" font-size="11pt" font-style="normal" font-weight="normal" text-decoration="normal" x="116.65833282470703" y="463.9361979166667" text-anchor="start" dominant-baseline="alphabetic" transform="matrix(1, 0, 0, 1, 0.5, 0.5)" fill-opacity="1">piControl</text><text fill="rgb(68,68,68)" stroke="none" font-family="helvetica" font-size="11pt" font-style="normal" font-weight="normal" text-decoration="normal" x="275.625" y="463.9361979166667" text-anchor="start" dominant-baseline="alphabetic" transform="matrix(1, 0, 0, 1, 0.5, 0.5)" fill-opacity="1">DeepMIP_1x</text><text fill="rgb(68,68,68)" stroke="none" font-family="helvetica" font-size="11pt" font-style="normal" font-weight="normal" text-decoration="normal" x="441.5166664123535" y="463.9361979166667" text-anchor="start" dominant-baseline="alphabetic" transform="matrix(1, 0, 0, 1, 0.5, 0.5)" fill-opacity="1">DeepMIP_1.5x</text><text fill="rgb(68,68,68)" stroke="none" font-family="helvetica" font-size="11pt" font-style="normal" font-weight="normal" text-decoration="normal" x="619.625" y="463.9361979166667" text-anchor="start" dominant-baseline="alphabetic" transform="matrix(1, 0, 0, 1, 0.5, 0.5)" fill-opacity="1">DeepMIP_2x</text><text fill="rgb(68,68,68)" stroke="none" font-family="helvetica" font-size="11pt" font-style="normal" font-weight="normal" text-decoration="normal" x="791.625" y="463.9361979166667" text-anchor="start" dominant-baseline="alphabetic" transform="matrix(1, 0, 0, 1, 0.5, 0.5)" fill-opacity="1">DeepMIP_3x</text><text fill="rgb(68,68,68)" stroke="none" font-family="helvetica" font-size="11pt" font-style="normal" font-weight="normal" text-decoration="normal" x="963.625" y="463.9361979166667" text-anchor="start" dominant-baseline="alphabetic" transform="matrix(1, 0, 0, 1, 0.5, 0.5)" fill-opacity="1">DeepMIP_4x</text><text fill="rgb(68,68,68)" stroke="none" font-family="helvetica" font-size="11pt" font-style="normal" font-weight="normal" text-decoration="normal" x="1135.625" y="463.9361979166667" text-anchor="start" dominant-baseline="alphabetic" transform="matrix(1, 0, 0, 1, 0.5, 0.5)" fill-opacity="1">DeepMIP_6x</text><text fill="rgb(68,68,68)" stroke="none" font-family="helvetica" font-size="11pt" font-style="normal" font-weight="normal" text-decoration="normal" x="1307.625" y="463.9361979166667" text-anchor="start" dominant-baseline="alphabetic" transform="matrix(1, 0, 0, 1, 0.5, 0.5)" fill-opacity="1">DeepMIP_9x</text><text fill="rgb(68,68,68)" stroke="none" font-family="helvetica" font-size="14pt" font-style="italic" font-weight="normal" text-decoration="normal" x="660.3249969482422" y="493.0813822428386" text-anchor="start" dominant-baseline="alphabetic" transform="matrix(1, 0, 0, 1, 0.5, 0.5)" fill-opacity="1">DeepMIP experiment</text><path fill="none" stroke="rgb(0,0,0)" paint-order="fill" d="M 60.5 439.5 L 60.5 94.5" stroke-opacity="1" stroke-linejoin="bevel" stroke-miterlimit="10" stroke-dasharray=""/><path fill="none" stroke="rgb(0,0,0)" paint-order="fill" d="M 54.5 409.5 L 62.5 409.5 M 54.5 343.5 L 62.5 343.5 M 54.5 276.5 L 62.5 276.5 M 54.5 210.5 L 62.5 210.5 M 54.5 144.5 L 62.5 144.5" stroke-opacity="1" stroke-linejoin="bevel" stroke-miterlimit="10" stroke-dasharray=""/><path fill="none" stroke="rgb(0,0,0)" paint-order="fill" d="M 56.5 422.5 L 60.5 422.5 M 56.5 435.5 L 60.5 435.5 M 56.5 409.5 L 60.5 409.5 M 56.5 395.5 L 60.5 395.5 M 56.5 382.5 L 60.5 382.5 M 56.5 369.5 L 60.5 369.5 M 56.5 356.5 L 60.5 356.5 M 56.5 343.5 L 60.5 343.5 M 56.5 329.5 L 60.5 329.5 M 56.5 316.5 L 60.5 316.5 M 56.5 303.5 L 60.5 303.5 M 56.5 290.5 L 60.5 290.5 M 56.5 276.5 L 60.5 276.5 M 56.5 263.5 L 60.5 263.5 M 56.5 250.5 L 60.5 250.5 M 56.5 237.5 L 60.5 237.5 M 56.5 224.5 L 60.5 224.5 M 56.5 210.5 L 60.5 210.5 M 56.5 197.5 L 60.5 197.5 M 56.5 184.5 L 60.5 184.5 M 56.5 171.5 L 60.5 171.5 M 56.5 157.5 L 60.5 157.5 M 56.5 144.5 L 60.5 144.5 M 56.5 131.5 L 60.5 131.5 M 56.5 118.5 L 60.5 118.5 M 56.5 105.5 L 60.5 105.5" stroke-opacity="1" stroke-linejoin="bevel" stroke-miterlimit="10" stroke-dasharray=""/><text fill="rgb(68,68,68)" stroke="none" font-family="helvetica" font-size="11pt" font-style="normal" font-weight="normal" text-decoration="normal" x="32.70000076293945" y="413.87956746419275" text-anchor="start" dominant-baseline="alphabetic" transform="matrix(1, 0, 0, 1, 0.5, 0.5)" fill-opacity="1">10</text><text fill="rgb(68,68,68)" stroke="none" font-family="helvetica" font-size="11pt" font-style="normal" font-weight="normal" text-decoration="normal" x="32.70000076293945" y="347.7774861653646" text-anchor="start" dominant-baseline="alphabetic" transform="matrix(1, 0, 0, 1, 0.5, 0.5)" fill-opacity="1">15</text><text fill="rgb(68,68,68)" stroke="none" font-family="helvetica" font-size="11pt" font-style="normal" font-weight="normal" text-decoration="normal" x="32.70000076293945" y="281.6754048665365" text-anchor="start" dominant-baseline="alphabetic" transform="matrix(1, 0, 0, 1, 0.5, 0.5)" fill-opacity="1">20</text><text fill="rgb(68,68,68)" stroke="none" font-family="helvetica" font-size="11pt" font-style="normal" font-weight="normal" text-decoration="normal" x="32.70000076293945" y="215.57332356770831" text-anchor="start" dominant-baseline="alphabetic" transform="matrix(1, 0, 0, 1, 0.5, 0.5)" fill-opacity="1">25</text><text fill="rgb(68,68,68)" stroke="none" font-family="helvetica" font-size="11pt" font-style="normal" font-weight="normal" text-decoration="normal" x="32.70000076293945" y="149.47122701009113" text-anchor="start" dominant-baseline="alphabetic" transform="matrix(1, 0, 0, 1, 0.5, 0.5)" fill-opacity="1">30</text><text fill="rgb(68,68,68)" stroke="none" font-family="helvetica" font-size="14pt" font-style="italic" font-weight="normal" text-decoration="normal" x="-50.124996185302734" y="262.37109375" text-anchor="start" dominant-baseline="alphabetic" transform="matrix(6.123233995736766e-17, -1, 1, 6.123233995736766e-17, -241.29999923706055, 291.70000076293945)" fill-opacity="1">annual_mean [°C]</text><path fill="rgb(255,255,255)" stroke="rgb(229,229,229)" paint-order="fill" d="M 60.5 54.5 L 755.2666683197021 54.5 L 755.2666683197021 94.5 L 60.5 94.5 L 60.5 54.5" fill-opacity="0.9490196078431372" stroke-opacity="0.5019607843137255" stroke-linejoin="bevel" stroke-miterlimit="10" stroke-dasharray=""/><text fill="rgb(68,68,68)" stroke="none" font-family="helvetica" font-size="10.8pt" font-style="normal" font-weight="normal" text-decoration="normal" x="95" y="74" text-anchor="start" dominant-baseline="central" transform="matrix(1, 0, 0, 1, 0.5, 0.5)" fill-opacity="1">CESM</text><path fill="rgb(48,162,218)" stroke="rgb(0,0,0)" paint-order="fill" d="M 84.5 74.5 A 4 4 0 0 1 76.5 74.5 A 4 4 0 0 1 84.5 74.5" fill-opacity="1" stroke-opacity="1" stroke-linejoin="bevel" stroke-miterlimit="10" stroke-dasharray=""/><text fill="rgb(68,68,68)" stroke="none" font-family="helvetica" font-size="10.8pt" font-style="normal" font-weight="normal" text-decoration="normal" x="164.5999984741211" y="74" text-anchor="start" dominant-baseline="central" transform="matrix(1, 0, 0, 1, 0.5, 0.5)" fill-opacity="1">COSMOS</text><path fill="rgb(252,79,48)" stroke="rgb(0,0,0)" paint-order="fill" d="M 154.0999984741211 74.5 A 4 4 0 0 1 146.0999984741211 74.5 A 4 4 0 0 1 154.0999984741211 74.5" fill-opacity="1" stroke-opacity="1" stroke-linejoin="bevel" stroke-miterlimit="10" stroke-dasharray=""/><text fill="rgb(68,68,68)" stroke="none" font-family="helvetica" font-size="10.8pt" font-style="normal" font-weight="normal" text-decoration="normal" x="256.5999984741211" y="74" text-anchor="start" dominant-baseline="central" transform="matrix(1, 0, 0, 1, 0.5, 0.5)" fill-opacity="1">GFDL</text><path fill="rgb(229,174,56)" stroke="rgb(0,0,0)" paint-order="fill" d="M 246.0999984741211 74.5 A 4 4 0 0 1 238.0999984741211 74.5 A 4 4 0 0 1 246.0999984741211 74.5" fill-opacity="1" stroke-opacity="1" stroke-linejoin="bevel" stroke-miterlimit="10" stroke-dasharray=""/><text fill="rgb(68,68,68)" stroke="none" font-family="helvetica" font-size="10.8pt" font-style="normal" font-weight="normal" text-decoration="normal" x="323.0166664123535" y="74" text-anchor="start" dominant-baseline="central" transform="matrix(1, 0, 0, 1, 0.5, 0.5)" fill-opacity="1">HadCM3</text><path fill="rgb(109,144,79)" stroke="rgb(0,0,0)" paint-order="fill" d="M 312.5166664123535 74.5 A 4 4 0 0 1 304.5166664123535 74.5 A 4 4 0 0 1 312.5166664123535 74.5" fill-opacity="1" stroke-opacity="1" stroke-linejoin="bevel" stroke-miterlimit="10" stroke-dasharray=""/><text fill="rgb(68,68,68)" stroke="none" font-family="helvetica" font-size="10.8pt" font-style="normal" font-weight="normal" text-decoration="normal" x="407.8666648864746" y="74" text-anchor="start" dominant-baseline="central" transform="matrix(1, 0, 0, 1, 0.5, 0.5)" fill-opacity="1">HadCM3L</text><path fill="rgb(139,139,139)" stroke="rgb(0,0,0)" paint-order="fill" d="M 397.3666648864746 74.5 A 4 4 0 0 1 389.3666648864746 74.5 A 4 4 0 0 1 397.3666648864746 74.5" fill-opacity="1" stroke-opacity="1" stroke-linejoin="bevel" stroke-miterlimit="10" stroke-dasharray=""/><text fill="rgb(68,68,68)" stroke="none" font-family="helvetica" font-size="10.8pt" font-style="normal" font-weight="normal" text-decoration="normal" x="500.7333335876465" y="74" text-anchor="start" dominant-baseline="central" transform="matrix(1, 0, 0, 1, 0.5, 0.5)" fill-opacity="1">INM</text><path fill="rgb(23,190,207)" stroke="rgb(0,0,0)" paint-order="fill" d="M 490.2333335876465 74.5 A 4 4 0 0 1 482.2333335876465 74.5 A 4 4 0 0 1 490.2333335876465 74.5" fill-opacity="1" stroke-opacity="1" stroke-linejoin="bevel" stroke-miterlimit="10" stroke-dasharray=""/><text fill="rgb(68,68,68)" stroke="none" font-family="helvetica" font-size="10.8pt" font-style="normal" font-weight="normal" text-decoration="normal" x="555.1333332061768" y="74" text-anchor="start" dominant-baseline="central" transform="matrix(1, 0, 0, 1, 0.5, 0.5)" fill-opacity="1">IPSL</text><path fill="rgb(148,103,189)" stroke="rgb(0,0,0)" paint-order="fill" d="M 544.6333332061768 74.5 A 4 4 0 0 1 536.6333332061768 74.5 A 4 4 0 0 1 544.6333332061768 74.5" fill-opacity="1" stroke-opacity="1" stroke-linejoin="bevel" stroke-miterlimit="10" stroke-dasharray=""/><text fill="rgb(68,68,68)" stroke="none" font-family="helvetica" font-size="10.8pt" font-style="normal" font-weight="normal" text-decoration="normal" x="614.3500003814697" y="74" text-anchor="start" dominant-baseline="central" transform="matrix(1, 0, 0, 1, 0.5, 0.5)" fill-opacity="1">MIROC</text><path fill="rgb(214,39,40)" stroke="rgb(0,0,0)" paint-order="fill" d="M 603.8500003814697 74.5 A 4 4 0 0 1 595.8500003814697 74.5 A 4 4 0 0 1 603.8500003814697 74.5" fill-opacity="1" stroke-opacity="1" stroke-linejoin="bevel" stroke-miterlimit="10" stroke-dasharray=""/><text fill="rgb(68,68,68)" stroke="none" font-family="helvetica" font-size="10.8pt" font-style="normal" font-weight="normal" text-decoration="normal" x="690.3500003814697" y="74" text-anchor="start" dominant-baseline="central" transform="matrix(1, 0, 0, 1, 0.5, 0.5)" fill-opacity="1">NorESM</text><path fill="rgb(31,119,180)" stroke="rgb(0,0,0)" paint-order="fill" d="M 679.8500003814697 74.5 A 4 4 0 0 1 671.8500003814697 74.5 A 4 4 0 0 1 679.8500003814697 74.5" fill-opacity="1" stroke-opacity="1" stroke-linejoin="bevel" stroke-miterlimit="10" stroke-dasharray=""/><text fill="rgb(68,68,68)" stroke="none" font-family="helvetica" font-size="14pt" font-style="normal" font-weight="bold" text-decoration="normal" x="60" y="24.934895833333332" text-anchor="start" dominant-baseline="alphabetic" transform="matrix(1, 0, 0, 1, 0.5, 0.5)" fill-opacity="1">DeepMIP (~55 Ma) near-surface air temperature (LAT = 46.6 / LON = -5.6)</text></svg>