<svg version="1.1" xmlns="http://www.w3.org/2000/svg" width="1466" height="500"><defs><clipPath id="PzGOxErSuUpW"><path fill="none" stroke="none" d="M 60.5 94.5 L 1436.5 94.5 L 1436.5 445.5 L 60.5 445.5 L 60.5 94.5"/></clipPath><clipPath id="cHaAkVBlpOQJ"><path fill="none" stroke="none" d="M 60.5 94.5 L 1436.5 94.5 L 1436.5 445.5 L 60.5 445.5 L 60.5 94.5"/></clipPath><clipPath id="DFHMmhVotwzT"><path fill="none" stroke="none" d="M 60.5 94.5 L 1436.5 94.5 L 1436.5 445.5 L 60.5 445.5 L 60.5 94.5"/></clipPath><clipPath id="yDTZknZsWKhb"><path fill="none" stroke="none" d="M 60.5 94.5 L 1436.5 94.5 L 1436.5 445.5 L 60.5 445.5 L 60.5 94.5"/></clipPath><clipPath id="DGNqGnvigowt"><path fill="none" stroke="none" d="M 60.5 94.5 L 1436.5 94.5 L 1436.5 445.5 L 60.5 445.5 L 60.5 94.5"/></clipPath><clipPath id="EqZIbqOuVxul"><path fill="none" stroke="none" d="M 60.5 94.5 L 1436.5 94.5 L 1436.5 445.5 L 60.5 445.5 L 60.5 94.5"/></clipPath><clipPath id="APVUeRVcMlFV"><path fill="none" stroke="none" d="M 60.5 94.5 L 1436.5 94.5 L 1436.5 445.5 L 60.5 445.5 L 60.5 94.5"/></clipPath><clipPath id="EJSlebGlraMS"><path fill="none" stroke="none" d="M 60.5 94.5 L 1436.5 94.5 L 1436.5 445.5 L 60.5 445.5 L 60.5 94.5"/></clipPath><clipPath id="cyuKXIfLlQWS"><path fill="none" stroke="none" d="M 60.5 94.5 L 1436.5 94.5 L 1436.5 445.5 L 60.5 445.5 L 60.5 94.5"/></clipPath><clipPath id="XgpaHtSQpcCi"><path fill="none" stroke="none" d="M 60.5 94.5 L 1436.5 94.5 L 1436.5 445.5 L 60.5 445.5 L 60.5 94.5"/></clipPath><clipPath id="NzJOZgGWiFqf"><path fill="none" stroke="none" d="M 60.5 94.5 L 1436.5 94.5 L 1436.5 445.5 L 60.5 445.5 L 60.5 94.5"/></clipPath><clipPath id="gTTetsDrhngS"><path fill="none" stroke="none" d="M 60.5 94.5 L 1436.5 94.5 L 1436.5 445.5 L 60.5 445.5 L 60.5 94.5"/></clipPath><clipPath id="CNmrcoGheoyG"><path fill="none" stroke="none" d="M 60.5 94.5 L 1436.5 94.5 L 1436.5 445.5 L 60.5 445.5 L 60.5 94.5"/></clipPath><clipPath id="sdevESyTibpm"><path fill="none" stroke="none" d="M 60.5 94.5 L 1436.5 94.5 L 1436.5 445.5 L 60.5 445.5 L 60.5 94.5"/></clipPath><clipPath id="EqKxzUzlmSiL"><path fill="none" stroke="none" d="M 60.5 94.5 L 1436.5 94.5 L 1436.5 445.5 L 60.5 445.5 L 60.5 94.5"/></clipPath><clipPath id="GIgxIoRDDFhI"><path fill="none" stroke="none" d="M 60.5 94.5 L 1436.5 94.5 L 1436.5 445.5 L 60.5 445.5 L 60.5 94.5"/></clipPath><clipPath id="CrbpdDbkJkfx"><path fill="none" stroke="none" d="M 60.5 94.5 L 1436.5 94.5 L 1436.5 445.5 L 60.5 445.5 L 60.5 94.5"/></clipPath><clipPath id="dJreHHObqbWZ"><path fill="none" stroke="none" d="M 60.5 94.5 L 1436.5 94.5 L 1436.5 445.5 L 60.5 445.5 L 60.5 94.5"/></clipPath><clipPath id="VJdilTaGNQkh"><path fill="none" stroke="none" d="M 60.5 94.5 L 1436.5 94.5 L 1436.5 445.5 L 60.5 445.5 L 60.5 94.5"/></clipPath><clipPath id="ltrfJrssnaCS"><path fill="none" stroke="none" d="M 60.5 94.5 L 1436.5 94.5 L 1436.5 445.5 L 60.5 445.5 L 60.5 94.5"/></clipPath><clipPath id="kIlNdHzPoXqG"><path fill="none" stroke="none" d="M 60.5 94.5 L 1436.5 94.5 L 1436.5 445.5 L 60.5 445.5 L 60.5 94.5"/></clipPath></defs><path fill="rgb(255,255,255)" stroke="none" paint-order="stroke" d="M 0.5 0.5 L 1466.5 0.5 L 1466.5 500.5 L 0.5 500.5 L 0.5 0.5" fill-opacity="1"/><rect fill="#FFFFFF" stroke="none" x="60" y="94" width="1376" height="351" transform="matrix(1, 0, 0, 1, 0.5, 0.5)"/><path fill="rgb(255,255,255)" stroke="none" paint-order="stroke" d="M 60.5 94.5 L 1436.5 94.5 L 1436.5 445.5 L 60.5 445.5 L 60.5 94.5" fill-opacity="1"/><path fill="none" stroke="rgb(229,229,229)" paint-order="fill" d="M 60.5 94.5 L 1436.5 94.5 L 1436.5 445.5 L 60.5 445.5 L 60.5 94.5" stroke-opacity="1" stroke-linejoin="bevel" stroke-miterlimit="10" stroke-dasharray=""/><path fill="rgb(48,162,218)" stroke="rgb(0,0,0)" paint-order="fill" d="M 292.30499267578125 332.5440673828125 A 6 6 0 0 1 280.30499267578125 332.5440673828125 A 6 6 0 0 1 292.30499267578125 332.5440673828125" fill-opacity="1" clip-path="url(#DFHMmhVotwzT)" stroke-opacity="1" stroke-linejoin="bevel" stroke-miterlimit="10" stroke-dasharray=""/><path fill="rgb(48,162,218)" stroke="rgb(0,0,0)" paint-order="fill" d="M 689.4085693359375 263.9473571777344 A 6 6 0 0 1 677.4085693359375 263.9473571777344 A 6 6 0 0 1 689.4085693359375 263.9473571777344" fill-opacity="1" clip-path="url(#DFHMmhVotwzT)" stroke-opacity="1" stroke-linejoin="bevel" stroke-miterlimit="10" stroke-dasharray=""/><path fill="rgb(48,162,218)" stroke="rgb(0,0,0)" paint-order="fill" d="M 982.73779296875 188.62545776367188 A 6 6 0 0 1 970.73779296875 188.62545776367188 A 6 6 0 0 1 982.73779296875 188.62545776367188" fill-opacity="1" clip-path="url(#DFHMmhVotwzT)" stroke-opacity="1" stroke-linejoin="bevel" stroke-miterlimit="10" stroke-dasharray=""/><path fill="rgb(48,162,218)" stroke="rgb(0,0,0)" paint-order="fill" d="M 1324.37646484375 113.30357360839844 A 6 6 0 0 1 1312.37646484375 113.30357360839844 A 6 6 0 0 1 1324.37646484375 113.30357360839844" fill-opacity="1" clip-path="url(#DFHMmhVotwzT)" stroke-opacity="1" stroke-linejoin="bevel" stroke-miterlimit="10" stroke-dasharray=""/><path fill="rgb(252,79,48)" stroke="rgb(0,0,0)" paint-order="fill" d="M 202.60435485839844 415.9361572265625 A 6 6 0 0 1 190.60435485839844 415.9361572265625 A 6 6 0 0 1 202.60435485839844 415.9361572265625" fill-opacity="1" clip-path="url(#yDTZknZsWKhb)" stroke-opacity="1" stroke-linejoin="bevel" stroke-miterlimit="10" stroke-dasharray=""/><path fill="rgb(252,79,48)" stroke="rgb(0,0,0)" paint-order="fill" d="M 704.7775268554688 340.6142578125 A 6 6 0 0 1 692.7775268554688 340.6142578125 A 6 6 0 0 1 704.7775268554688 340.6142578125" fill-opacity="1" clip-path="url(#yDTZknZsWKhb)" stroke-opacity="1" stroke-linejoin="bevel" stroke-miterlimit="10" stroke-dasharray=""/><path fill="rgb(252,79,48)" stroke="rgb(0,0,0)" paint-order="fill" d="M 802.4409790039062 311.0235290527344 A 6 6 0 0 1 790.4409790039062 311.0235290527344 A 6 6 0 0 1 802.4409790039062 311.0235290527344" fill-opacity="1" clip-path="url(#yDTZknZsWKhb)" stroke-opacity="1" stroke-linejoin="bevel" stroke-miterlimit="10" stroke-dasharray=""/><path fill="rgb(229,174,56)" stroke="rgb(0,0,0)" paint-order="fill" d="M 343.241455078125 417.28118896484375 A 6 6 0 0 1 331.241455078125 417.28118896484375 A 6 6 0 0 1 343.241455078125 417.28118896484375" fill-opacity="1" clip-path="url(#DGNqGnvigowt)" stroke-opacity="1" stroke-linejoin="bevel" stroke-miterlimit="10" stroke-dasharray=""/><path fill="rgb(229,174,56)" stroke="rgb(0,0,0)" paint-order="fill" d="M 559.7785034179688 362.1347961425781 A 6 6 0 0 1 547.7785034179688 362.1347961425781 A 6 6 0 0 1 559.7785034179688 362.1347961425781" fill-opacity="1" clip-path="url(#DGNqGnvigowt)" stroke-opacity="1" stroke-linejoin="bevel" stroke-miterlimit="10" stroke-dasharray=""/><path fill="rgb(229,174,56)" stroke="rgb(0,0,0)" paint-order="fill" d="M 709.9500732421875 331.19903564453125 A 6 6 0 0 1 697.9500732421875 331.19903564453125 A 6 6 0 0 1 709.9500732421875 331.19903564453125" fill-opacity="1" clip-path="url(#DGNqGnvigowt)" stroke-opacity="1" stroke-linejoin="bevel" stroke-miterlimit="10" stroke-dasharray=""/><path fill="rgb(229,174,56)" stroke="rgb(0,0,0)" paint-order="fill" d="M 836.8220825195312 301.6083068847656 A 6 6 0 0 1 824.8220825195312 301.6083068847656 A 6 6 0 0 1 836.8220825195312 301.6083068847656" fill-opacity="1" clip-path="url(#DGNqGnvigowt)" stroke-opacity="1" stroke-linejoin="bevel" stroke-miterlimit="10" stroke-dasharray=""/><path fill="rgb(229,174,56)" stroke="rgb(0,0,0)" paint-order="fill" d="M 1011.7882690429688 254.53211975097656 A 6 6 0 0 1 999.7882690429688 254.53211975097656 A 6 6 0 0 1 1011.7882690429688 254.53211975097656" fill-opacity="1" clip-path="url(#DGNqGnvigowt)" stroke-opacity="1" stroke-linejoin="bevel" stroke-miterlimit="10" stroke-dasharray=""/><path fill="rgb(109,144,79)" stroke="rgb(0,0,0)" paint-order="fill" d="M 231.6274871826172 406.52093505859375 A 6 6 0 0 1 219.6274871826172 406.52093505859375 A 6 6 0 0 1 231.6274871826172 406.52093505859375" fill-opacity="1" clip-path="url(#EqZIbqOuVxul)" stroke-opacity="1" stroke-linejoin="bevel" stroke-miterlimit="10" stroke-dasharray=""/><path fill="rgb(109,144,79)" stroke="rgb(0,0,0)" paint-order="fill" d="M 463.4136047363281 352.7195739746094 A 6 6 0 0 1 451.4136047363281 352.7195739746094 A 6 6 0 0 1 463.4136047363281 352.7195739746094" fill-opacity="1" clip-path="url(#EqZIbqOuVxul)" stroke-opacity="1" stroke-linejoin="bevel" stroke-miterlimit="10" stroke-dasharray=""/><path fill="rgb(109,144,79)" stroke="rgb(0,0,0)" paint-order="fill" d="M 696.671142578125 297.57318115234375 A 6 6 0 0 1 684.671142578125 297.57318115234375 A 6 6 0 0 1 696.671142578125 297.57318115234375" fill-opacity="1" clip-path="url(#EqZIbqOuVxul)" stroke-opacity="1" stroke-linejoin="bevel" stroke-miterlimit="10" stroke-dasharray=""/><path fill="rgb(139,139,139)" stroke="rgb(0,0,0)" paint-order="fill" d="M 198.0159454345703 426.6964416503906 A 6 6 0 0 1 186.0159454345703 426.6964416503906 A 6 6 0 0 1 198.0159454345703 426.6964416503906" fill-opacity="1" clip-path="url(#APVUeRVcMlFV)" stroke-opacity="1" stroke-linejoin="bevel" stroke-miterlimit="10" stroke-dasharray=""/><path fill="rgb(139,139,139)" stroke="rgb(0,0,0)" paint-order="fill" d="M 450.89599609375 378.27520751953125 A 6 6 0 0 1 438.89599609375 378.27520751953125 A 6 6 0 0 1 450.89599609375 378.27520751953125" fill-opacity="1" clip-path="url(#APVUeRVcMlFV)" stroke-opacity="1" stroke-linejoin="bevel" stroke-miterlimit="10" stroke-dasharray=""/><path fill="rgb(139,139,139)" stroke="rgb(0,0,0)" paint-order="fill" d="M 745.9014892578125 289.50299072265625 A 6 6 0 0 1 733.9014892578125 289.50299072265625 A 6 6 0 0 1 745.9014892578125 289.50299072265625" fill-opacity="1" clip-path="url(#APVUeRVcMlFV)" stroke-opacity="1" stroke-linejoin="bevel" stroke-miterlimit="10" stroke-dasharray=""/><path fill="rgb(23,190,207)" stroke="rgb(0,0,0)" paint-order="fill" d="M 598.3367309570312 302.9533386230469 A 6 6 0 0 1 586.3367309570312 302.9533386230469 A 6 6 0 0 1 598.3367309570312 302.9533386230469" fill-opacity="1" clip-path="url(#EJSlebGlraMS)" stroke-opacity="1" stroke-linejoin="bevel" stroke-miterlimit="10" stroke-dasharray=""/><path fill="rgb(148,103,189)" stroke="rgb(0,0,0)" paint-order="fill" d="M 349.7952880859375 362.1347961425781 A 6 6 0 0 1 337.7952880859375 362.1347961425781 A 6 6 0 0 1 349.7952880859375 362.1347961425781" fill-opacity="1" clip-path="url(#cyuKXIfLlQWS)" stroke-opacity="1" stroke-linejoin="bevel" stroke-miterlimit="10" stroke-dasharray=""/><path fill="rgb(148,103,189)" stroke="rgb(0,0,0)" paint-order="fill" d="M 690.0651245117188 300.26324462890625 A 6 6 0 0 1 678.0651245117188 300.26324462890625 A 6 6 0 0 1 690.0651245117188 300.26324462890625" fill-opacity="1" clip-path="url(#cyuKXIfLlQWS)" stroke-opacity="1" stroke-linejoin="bevel" stroke-miterlimit="10" stroke-dasharray=""/><path fill="rgb(214,39,40)" stroke="rgb(0,0,0)" paint-order="fill" d="M 177.68582153320312 376.93017578125 A 6 6 0 0 1 165.68582153320312 376.93017578125 A 6 6 0 0 1 177.68582153320312 376.93017578125" fill-opacity="1" clip-path="url(#XgpaHtSQpcCi)" stroke-opacity="1" stroke-linejoin="bevel" stroke-miterlimit="10" stroke-dasharray=""/><path fill="rgb(214,39,40)" stroke="rgb(0,0,0)" paint-order="fill" d="M 411.1047668457031 325.81890869140625 A 6 6 0 0 1 399.1047668457031 325.81890869140625 A 6 6 0 0 1 411.1047668457031 325.81890869140625" fill-opacity="1" clip-path="url(#XgpaHtSQpcCi)" stroke-opacity="1" stroke-linejoin="bevel" stroke-miterlimit="10" stroke-dasharray=""/><path fill="rgb(214,39,40)" stroke="rgb(0,0,0)" paint-order="fill" d="M 602.2423095703125 289.50299072265625 A 6 6 0 0 1 590.2423095703125 289.50299072265625 A 6 6 0 0 1 602.2423095703125 289.50299072265625" fill-opacity="1" clip-path="url(#XgpaHtSQpcCi)" stroke-opacity="1" stroke-linejoin="bevel" stroke-miterlimit="10" stroke-dasharray=""/><path fill="rgb(31,119,180)" stroke="rgb(0,0,0)" paint-order="fill" d="M 460.4601745605469 257.22216796875 A 6 6 0 0 1 448.4601745605469 257.22216796875 A 6 6 0 0 1 460.4601745605469 257.22216796875" fill-opacity="1" clip-path="url(#NzJOZgGWiFqf)" stroke-opacity="1" stroke-linejoin="bevel" stroke-miterlimit="10" stroke-dasharray=""/><path fill="rgb(31,119,180)" stroke="rgb(0,0,0)" paint-order="fill" d="M 640.5291137695312 216.8711700439453 A 6 6 0 0 1 628.5291137695312 216.8711700439453 A 6 6 0 0 1 640.5291137695312 216.8711700439453" fill-opacity="1" clip-path="url(#NzJOZgGWiFqf)" stroke-opacity="1" stroke-linejoin="bevel" stroke-miterlimit="10" stroke-dasharray=""/><path fill="none" stroke="rgb(48,162,218)" paint-order="fill" d="M 284.3730163574219 332.5440673828125 L 684.7963256835938 263.9473571777344 L 976.0132446289062 188.62545776367188 L 1321.8333740234375 113.30357360839844" stroke-opacity="1" stroke-linejoin="bevel" stroke-miterlimit="10" stroke-width="2" stroke-dasharray="" clip-path="url(#gTTetsDrhngS)"/><path fill="none" stroke="rgb(252,79,48)" paint-order="fill" d="M 199.4347381591797 415.9361572265625 L 696.9303588867188 340.6142578125 L 800.0696411132812 311.0235290527344" stroke-opacity="1" stroke-linejoin="bevel" stroke-miterlimit="10" stroke-width="2" stroke-dasharray="" clip-path="url(#CNmrcoGheoyG)"/><path fill="none" stroke="rgb(229,174,56)" paint-order="fill" d="M 332.9091796875 417.28118896484375 L 557.388916015625 362.1347961425781 L 709.0643920898438 331.19903564453125 L 836.4718017578125 301.6083068847656 L 1000.2813110351562 254.53211975097656" stroke-opacity="1" stroke-linejoin="bevel" stroke-miterlimit="10" stroke-width="2" stroke-dasharray="" clip-path="url(#sdevESyTibpm)"/><path fill="none" stroke="rgb(109,144,79)" paint-order="fill" d="M 223.70281982421875 406.52093505859375 L 454.24957275390625 352.7195739746094 L 684.7963256835938 297.57318115234375" stroke-opacity="1" stroke-linejoin="bevel" stroke-miterlimit="10" stroke-width="2" stroke-dasharray="" clip-path="url(#EqKxzUzlmSiL)"/><path fill="none" stroke="rgb(139,139,139)" paint-order="fill" d="M 193.3677215576172 426.6964416503906 L 448.1825256347656 378.27520751953125 L 745.4664916992188 289.50299072265625" stroke-opacity="1" stroke-linejoin="bevel" stroke-miterlimit="10" stroke-width="2" stroke-dasharray="" clip-path="url(#GIgxIoRDDFhI)"/><path fill="none" stroke="rgb(23,190,207)" paint-order="fill" d="M 587.7239990234375 302.9533386230469" stroke-opacity="1" stroke-linejoin="bevel" stroke-miterlimit="10" stroke-width="2" stroke-dasharray="" clip-path="url(#CrbpdDbkJkfx)"/><path fill="none" stroke="rgb(148,103,189)" paint-order="fill" d="M 345.043212890625 362.1347961425781 L 684.7963256835938 300.26324462890625" stroke-opacity="1" stroke-linejoin="bevel" stroke-miterlimit="10" stroke-width="2" stroke-dasharray="" clip-path="url(#dJreHHObqbWZ)"/><path fill="none" stroke="rgb(214,39,40)" paint-order="fill" d="M 175.1666717529297 376.93017578125 L 405.7134094238281 325.81890869140625 L 593.791015625 289.50299072265625" stroke-opacity="1" stroke-linejoin="bevel" stroke-miterlimit="10" stroke-width="2" stroke-dasharray="" clip-path="url(#VJdilTaGNQkh)"/><path fill="none" stroke="rgb(31,119,180)" paint-order="fill" d="M 454.24957275390625 257.22216796875 L 630.193115234375 216.8711700439453" stroke-opacity="1" stroke-linejoin="bevel" stroke-miterlimit="10" stroke-width="2" stroke-dasharray="" clip-path="url(#ltrfJrssnaCS)"/><path fill="none" stroke="rgb(0,0,0)" paint-order="fill" d="M 60.5 445.5 L 1436.5 445.5" stroke-opacity="1" stroke-linejoin="bevel" stroke-miterlimit="10" stroke-dasharray=""/><path fill="none" stroke="rgb(0,0,0)" paint-order="fill" d="M 78.5 451.5 L 78.5 443.5 M 381.5 451.5 L 381.5 443.5 M 684.5 451.5 L 684.5 443.5 M 988.5 451.5 L 988.5 443.5 M 1291.5 451.5 L 1291.5 443.5" stroke-opacity="1" stroke-linejoin="bevel" stroke-miterlimit="10" stroke-dasharray=""/><path fill="none" stroke="rgb(0,0,0)" paint-order="fill" d="M 78.5 449.5 L 78.5 445.5 M 138.5 449.5 L 138.5 445.5 M 199.5 449.5 L 199.5 445.5 M 260.5 449.5 L 260.5 445.5 M 320.5 449.5 L 320.5 445.5 M 381.5 449.5 L 381.5 445.5 M 442.5 449.5 L 442.5 445.5 M 502.5 449.5 L 502.5 445.5 M 563.5 449.5 L 563.5 445.5 M 624.5 449.5 L 624.5 445.5 M 684.5 449.5 L 684.5 445.5 M 745.5 449.5 L 745.5 445.5 M 806.5 449.5 L 806.5 445.5 M 866.5 449.5 L 866.5 445.5 M 927.5 449.5 L 927.5 445.5 M 988.5 449.5 L 988.5 445.5 M 1048.5 449.5 L 1048.5 445.5 M 1109.5 449.5 L 1109.5 445.5 M 1170.5 449.5 L 1170.5 445.5 M 1230.5 449.5 L 1230.5 445.5 M 1291.5 449.5 L 1291.5 445.5 M 1352.5 449.5 L 1352.5 445.5 M 1412.5 449.5 L 1412.5 445.5" stroke-opacity="1" stroke-linejoin="bevel" stroke-miterlimit="10" stroke-dasharray=""/><text fill="rgb(68,68,68)" stroke="none" font-family="helvetica" font-size="11pt" font-style="normal" font-weight="normal" text-decoration="normal" x="69.4443531036377" y="466.5201822916667" text-anchor="start" dominant-baseline="alphabetic" transform="matrix(1, 0, 0, 1, 0.5, 0.5)" fill-opacity="1">15</text><text fill="rgb(68,68,68)" stroke="none" font-family="helvetica" font-size="11pt" font-style="normal" font-weight="normal" text-decoration="normal" x="372.7953128814697" y="466.5201822916667" text-anchor="start" dominant-baseline="alphabetic" transform="matrix(1, 0, 0, 1, 0.5, 0.5)" fill-opacity="1">20</text><text fill="rgb(68,68,68)" stroke="none" font-family="helvetica" font-size="11pt" font-style="normal" font-weight="normal" text-decoration="normal" x="676.1463260650635" y="466.5201822916667" text-anchor="start" dominant-baseline="alphabetic" transform="matrix(1, 0, 0, 1, 0.5, 0.5)" fill-opacity="1">25</text><text fill="rgb(68,68,68)" stroke="none" font-family="helvetica" font-size="11pt" font-style="normal" font-weight="normal" text-decoration="normal" x="979.497278213501" y="466.5201822916667" text-anchor="start" dominant-baseline="alphabetic" transform="matrix(1, 0, 0, 1, 0.5, 0.5)" fill-opacity="1">30</text><text fill="rgb(68,68,68)" stroke="none" font-family="helvetica" font-size="11pt" font-style="normal" font-weight="normal" text-decoration="normal" x="1282.8482913970947" y="466.5201822916667" text-anchor="start" dominant-baseline="alphabetic" transform="matrix(1, 0, 0, 1, 0.5, 0.5)" fill-opacity="1">35</text><text fill="rgb(68,68,68)" stroke="none" font-family="helvetica" font-size="14pt" font-style="italic" font-weight="normal" text-decoration="normal" x="702.7916679382324" y="492.4212259928386" text-anchor="start" dominant-baseline="alphabetic" transform="matrix(1, 0, 0, 1, 0.5, 0.5)" fill-opacity="1">GMST [°C]</text><path fill="none" stroke="rgb(0,0,0)" paint-order="fill" d="M 60.5 445.5 L 60.5 94.5" stroke-opacity="1" stroke-linejoin="bevel" stroke-miterlimit="10" stroke-dasharray=""/><path fill="none" stroke="rgb(0,0,0)" paint-order="fill" d="M 54.5 414.5 L 62.5 414.5 M 54.5 347.5 L 62.5 347.5 M 54.5 280.5 L 62.5 280.5 M 54.5 212.5 L 62.5 212.5 M 54.5 145.5 L 62.5 145.5" stroke-opacity="1" stroke-linejoin="bevel" stroke-miterlimit="10" stroke-dasharray=""/><path fill="none" stroke="rgb(0,0,0)" paint-order="fill" d="M 56.5 428.5 L 60.5 428.5 M 56.5 441.5 L 60.5 441.5 M 56.5 414.5 L 60.5 414.5 M 56.5 401.5 L 60.5 401.5 M 56.5 387.5 L 60.5 387.5 M 56.5 374.5 L 60.5 374.5 M 56.5 360.5 L 60.5 360.5 M 56.5 347.5 L 60.5 347.5 M 56.5 333.5 L 60.5 333.5 M 56.5 320.5 L 60.5 320.5 M 56.5 306.5 L 60.5 306.5 M 56.5 293.5 L 60.5 293.5 M 56.5 280.5 L 60.5 280.5 M 56.5 266.5 L 60.5 266.5 M 56.5 253.5 L 60.5 253.5 M 56.5 239.5 L 60.5 239.5 M 56.5 226.5 L 60.5 226.5 M 56.5 212.5 L 60.5 212.5 M 56.5 199.5 L 60.5 199.5 M 56.5 185.5 L 60.5 185.5 M 56.5 172.5 L 60.5 172.5 M 56.5 159.5 L 60.5 159.5 M 56.5 145.5 L 60.5 145.5 M 56.5 132.5 L 60.5 132.5 M 56.5 118.5 L 60.5 118.5 M 56.5 105.5 L 60.5 105.5" stroke-opacity="1" stroke-linejoin="bevel" stroke-miterlimit="10" stroke-dasharray=""/><text fill="rgb(68,68,68)" stroke="none" font-family="helvetica" font-size="11pt" font-style="normal" font-weight="normal" text-decoration="normal" x="32.70000076293945" y="419.3512166341146" text-anchor="start" dominant-baseline="alphabetic" transform="matrix(1, 0, 0, 1, 0.5, 0.5)" fill-opacity="1">10</text><text fill="rgb(68,68,68)" stroke="none" font-family="helvetica" font-size="11pt" font-style="normal" font-weight="normal" text-decoration="normal" x="32.70000076293945" y="352.09953816731775" text-anchor="start" dominant-baseline="alphabetic" transform="matrix(1, 0, 0, 1, 0.5, 0.5)" fill-opacity="1">15</text><text fill="rgb(68,68,68)" stroke="none" font-family="helvetica" font-size="11pt" font-style="normal" font-weight="normal" text-decoration="normal" x="32.70000076293945" y="284.84782918294275" text-anchor="start" dominant-baseline="alphabetic" transform="matrix(1, 0, 0, 1, 0.5, 0.5)" fill-opacity="1">20</text><text fill="rgb(68,68,68)" stroke="none" font-family="helvetica" font-size="11pt" font-style="normal" font-weight="normal" text-decoration="normal" x="32.70000076293945" y="217.59615071614581" text-anchor="start" dominant-baseline="alphabetic" transform="matrix(1, 0, 0, 1, 0.5, 0.5)" fill-opacity="1">25</text><text fill="rgb(68,68,68)" stroke="none" font-family="helvetica" font-size="11pt" font-style="normal" font-weight="normal" text-decoration="normal" x="32.70000076293945" y="150.34447224934894" text-anchor="start" dominant-baseline="alphabetic" transform="matrix(1, 0, 0, 1, 0.5, 0.5)" fill-opacity="1">30</text><text fill="rgb(68,68,68)" stroke="none" font-family="helvetica" font-size="14pt" font-style="italic" font-weight="normal" text-decoration="normal" x="-50.124996185302734" y="265.37109375" text-anchor="start" dominant-baseline="alphabetic" transform="matrix(6.123233995736766e-17, -1, 1, 6.123233995736766e-17, -244.29999923706055, 294.70000076293945)" fill-opacity="1">annual_mean [°C]</text><path fill="rgb(255,255,255)" stroke="rgb(229,229,229)" paint-order="fill" d="M 60.5 54.5 L 755.2666683197021 54.5 L 755.2666683197021 94.5 L 60.5 94.5 L 60.5 54.5" fill-opacity="0.9490196078431372" stroke-opacity="0.5019607843137255" stroke-linejoin="bevel" stroke-miterlimit="10" stroke-dasharray=""/><text fill="rgb(68,68,68)" stroke="none" font-family="helvetica" font-size="10.8pt" font-style="normal" font-weight="normal" text-decoration="normal" x="95" y="74" text-anchor="start" dominant-baseline="central" transform="matrix(1, 0, 0, 1, 0.5, 0.5)" fill-opacity="1">CESM</text><path fill="rgb(48,162,218)" stroke="rgb(0,0,0)" paint-order="fill" d="M 84.5 74.5 A 4 4 0 0 1 76.5 74.5 A 4 4 0 0 1 84.5 74.5" fill-opacity="1" stroke-opacity="1" stroke-linejoin="bevel" stroke-miterlimit="10" stroke-dasharray=""/><path fill="none" stroke="rgb(48,162,218)" paint-order="fill" d="M 70.5 74.5 L 90.5 74.5" stroke-opacity="1" stroke-linejoin="bevel" stroke-miterlimit="10" stroke-width="2" stroke-dasharray=""/><text fill="rgb(68,68,68)" stroke="none" font-family="helvetica" font-size="10.8pt" font-style="normal" font-weight="normal" text-decoration="normal" x="164.5999984741211" y="74" text-anchor="start" dominant-baseline="central" transform="matrix(1, 0, 0, 1, 0.5, 0.5)" fill-opacity="1">COSMOS</text><path fill="rgb(252,79,48)" stroke="rgb(0,0,0)" paint-order="fill" d="M 154.0999984741211 74.5 A 4 4 0 0 1 146.0999984741211 74.5 A 4 4 0 0 1 154.0999984741211 74.5" fill-opacity="1" stroke-opacity="1" stroke-linejoin="bevel" stroke-miterlimit="10" stroke-dasharray=""/><path fill="none" stroke="rgb(252,79,48)" paint-order="fill" d="M 140.0999984741211 74.5 L 160.0999984741211 74.5" stroke-opacity="1" stroke-linejoin="bevel" stroke-miterlimit="10" stroke-width="2" stroke-dasharray=""/><text fill="rgb(68,68,68)" stroke="none" font-family="helvetica" font-size="10.8pt" font-style="normal" font-weight="normal" text-decoration="normal" x="256.5999984741211" y="74" text-anchor="start" dominant-baseline="central" transform="matrix(1, 0, 0, 1, 0.5, 0.5)" fill-opacity="1">GFDL</text><path fill="rgb(229,174,56)" stroke="rgb(0,0,0)" paint-order="fill" d="M 246.0999984741211 74.5 A 4 4 0 0 1 238.0999984741211 74.5 A 4 4 0 0 1 246.0999984741211 74.5" fill-opacity="1" stroke-opacity="1" stroke-linejoin="bevel" stroke-miterlimit="10" stroke-dasharray=""/><path fill="none" stroke="rgb(229,174,56)" paint-order="fill" d="M 232.0999984741211 74.5 L 252.0999984741211 74.5" stroke-opacity="1" stroke-linejoin="bevel" stroke-miterlimit="10" stroke-width="2" stroke-dasharray=""/><text fill="rgb(68,68,68)" stroke="none" font-family="helvetica" font-size="10.8pt" font-style="normal" font-weight="normal" text-decoration="normal" x="323.0166664123535" y="74" text-anchor="start" dominant-baseline="central" transform="matrix(1, 0, 0, 1, 0.5, 0.5)" fill-opacity="1">HadCM3</text><path fill="rgb(109,144,79)" stroke="rgb(0,0,0)" paint-order="fill" d="M 312.5166664123535 74.5 A 4 4 0 0 1 304.5166664123535 74.5 A 4 4 0 0 1 312.5166664123535 74.5" fill-opacity="1" stroke-opacity="1" stroke-linejoin="bevel" stroke-miterlimit="10" stroke-dasharray=""/><path fill="none" stroke="rgb(109,144,79)" paint-order="fill" d="M 298.5166664123535 74.5 L 318.5166664123535 74.5" stroke-opacity="1" stroke-linejoin="bevel" stroke-miterlimit="10" stroke-width="2" stroke-dasharray=""/><text fill="rgb(68,68,68)" stroke="none" font-family="helvetica" font-size="10.8pt" font-style="normal" font-weight="normal" text-decoration="normal" x="407.8666648864746" y="74" text-anchor="start" dominant-baseline="central" transform="matrix(1, 0, 0, 1, 0.5, 0.5)" fill-opacity="1">HadCM3L</text><path fill="rgb(139,139,139)" stroke="rgb(0,0,0)" paint-order="fill" d="M 397.3666648864746 74.5 A 4 4 0 0 1 389.3666648864746 74.5 A 4 4 0 0 1 397.3666648864746 74.5" fill-opacity="1" stroke-opacity="1" stroke-linejoin="bevel" stroke-miterlimit="10" stroke-dasharray=""/><path fill="none" stroke="rgb(139,139,139)" paint-order="fill" d="M 383.3666648864746 74.5 L 403.3666648864746 74.5" stroke-opacity="1" stroke-linejoin="bevel" stroke-miterlimit="10" stroke-width="2" stroke-dasharray=""/><text fill="rgb(68,68,68)" stroke="none" font-family="helvetica" font-size="10.8pt" font-style="normal" font-weight="normal" text-decoration="normal" x="500.7333335876465" y="74" text-anchor="start" dominant-baseline="central" transform="matrix(1, 0, 0, 1, 0.5, 0.5)" fill-opacity="1">INM</text><path fill="rgb(23,190,207)" stroke="rgb(0,0,0)" paint-order="fill" d="M 490.2333335876465 74.5 A 4 4 0 0 1 482.2333335876465 74.5 A 4 4 0 0 1 490.2333335876465 74.5" fill-opacity="1" stroke-opacity="1" stroke-linejoin="bevel" stroke-miterlimit="10" stroke-dasharray=""/><path fill="none" stroke="rgb(23,190,207)" paint-order="fill" d="M 476.2333335876465 74.5 L 496.2333335876465 74.5" stroke-opacity="1" stroke-linejoin="bevel" stroke-miterlimit="10" stroke-width="2" stroke-dasharray=""/><text fill="rgb(68,68,68)" stroke="none" font-family="helvetica" font-size="10.8pt" font-style="normal" font-weight="normal" text-decoration="normal" x="555.1333332061768" y="74" text-anchor="start" dominant-baseline="central" transform="matrix(1, 0, 0, 1, 0.5, 0.5)" fill-opacity="1">IPSL</text><path fill="rgb(148,103,189)" stroke="rgb(0,0,0)" paint-order="fill" d="M 544.6333332061768 74.5 A 4 4 0 0 1 536.6333332061768 74.5 A 4 4 0 0 1 544.6333332061768 74.5" fill-opacity="1" stroke-opacity="1" stroke-linejoin="bevel" stroke-miterlimit="10" stroke-dasharray=""/><path fill="none" stroke="rgb(148,103,189)" paint-order="fill" d="M 530.6333332061768 74.5 L 550.6333332061768 74.5" stroke-opacity="1" stroke-linejoin="bevel" stroke-miterlimit="10" stroke-width="2" stroke-dasharray=""/><text fill="rgb(68,68,68)" stroke="none" font-family="helvetica" font-size="10.8pt" font-style="normal" font-weight="normal" text-decoration="normal" x="614.3500003814697" y="74" text-anchor="start" dominant-baseline="central" transform="matrix(1, 0, 0, 1, 0.5, 0.5)" fill-opacity="1">MIROC</text><path fill="rgb(214,39,40)" stroke="rgb(0,0,0)" paint-order="fill" d="M 603.8500003814697 74.5 A 4 4 0 0 1 595.8500003814697 74.5 A 4 4 0 0 1 603.8500003814697 74.5" fill-opacity="1" stroke-opacity="1" stroke-linejoin="bevel" stroke-miterlimit="10" stroke-dasharray=""/><path fill="none" stroke="rgb(214,39,40)" paint-order="fill" d="M 589.8500003814697 74.5 L 609.8500003814697 74.5" stroke-opacity="1" stroke-linejoin="bevel" stroke-miterlimit="10" stroke-width="2" stroke-dasharray=""/><text fill="rgb(68,68,68)" stroke="none" font-family="helvetica" font-size="10.8pt" font-style="normal" font-weight="normal" text-decoration="normal" x="690.3500003814697" y="74" text-anchor="start" dominant-baseline="central" transform="matrix(1, 0, 0, 1, 0.5, 0.5)" fill-opacity="1">NorESM</text><path fill="rgb(31,119,180)" stroke="rgb(0,0,0)" paint-order="fill" d="M 679.8500003814697 74.5 A 4 4 0 0 1 671.8500003814697 74.5 A 4 4 0 0 1 679.8500003814697 74.5" fill-opacity="1" stroke-opacity="1" stroke-linejoin="bevel" stroke-miterlimit="10" stroke-dasharray=""/><path fill="none" stroke="rgb(31,119,180)" paint-order="fill" d="M 665.8500003814697 74.5 L 685.8500003814697 74.5" stroke-opacity="1" stroke-linejoin="bevel" stroke-miterlimit="10" stroke-width="2" stroke-dasharray=""/><text fill="rgb(68,68,68)" stroke="none" font-family="helvetica" font-size="14pt" font-style="normal" font-weight="bold" text-decoration="normal" x="60" y="24.934895833333332" text-anchor="start" dominant-baseline="alphabetic" transform="matrix(1, 0, 0, 1, 0.5, 0.5)" fill-opacity="1">DeepMIP (~55 Ma) near-surface air temperature (LAT = 46.6 / LON = -5.6)</text></svg>