<svg version="1.1" xmlns="http://www.w3.org/2000/svg" width="1466" height="500"><defs><clipPath id="VqwVqldonSyz"><path fill="none" stroke="none" d="M 60.5 94.5 L 1436.5 94.5 L 1436.5 445.5 L 60.5 445.5 L 60.5 94.5"/></clipPath><clipPath id="LgLOygptKmRh"><path fill="none" stroke="none" d="M 60.5 94.5 L 1436.5 94.5 L 1436.5 445.5 L 60.5 445.5 L 60.5 94.5"/></clipPath><clipPath id="AESPHgatFpeM"><path fill="none" stroke="none" d="M 60.5 94.5 L 1436.5 94.5 L 1436.5 445.5 L 60.5 445.5 L 60.5 94.5"/></clipPath><clipPath id="rEtJagPCyapO"><path fill="none" stroke="none" d="M 60.5 94.5 L 1436.5 94.5 L 1436.5 445.5 L 60.5 445.5 L 60.5 94.5"/></clipPath><clipPath id="zHVqgZmtzmAS"><path fill="none" stroke="none" d="M 60.5 94.5 L 1436.5 94.5 L 1436.5 445.5 L 60.5 445.5 L 60.5 94.5"/></clipPath><clipPath id="rUwzWDrTknCF"><path fill="none" stroke="none" d="M 60.5 94.5 L 1436.5 94.5 L 1436.5 445.5 L 60.5 445.5 L 60.5 94.5"/></clipPath><clipPath id="VSfVLSvVVDgm"><path fill="none" stroke="none" d="M 60.5 94.5 L 1436.5 94.5 L 1436.5 445.5 L 60.5 445.5 L 60.5 94.5"/></clipPath><clipPath id="qLAbpLMtOfgm"><path fill="none" stroke="none" d="M 60.5 94.5 L 1436.5 94.5 L 1436.5 445.5 L 60.5 445.5 L 60.5 94.5"/></clipPath><clipPath id="VdLzWJsLtbaS"><path fill="none" stroke="none" d="M 60.5 94.5 L 1436.5 94.5 L 1436.5 445.5 L 60.5 445.5 L 60.5 94.5"/></clipPath><clipPath id="wPxHLrznxfmt"><path fill="none" stroke="none" d="M 60.5 94.5 L 1436.5 94.5 L 1436.5 445.5 L 60.5 445.5 L 60.5 94.5"/></clipPath><clipPath id="zDrhaHwhWScU"><path fill="none" stroke="none" d="M 60.5 94.5 L 1436.5 94.5 L 1436.5 445.5 L 60.5 445.5 L 60.5 94.5"/></clipPath><clipPath id="zGBzScMFkfaT"><path fill="none" stroke="none" d="M 60.5 94.5 L 1436.5 94.5 L 1436.5 445.5 L 60.5 445.5 L 60.5 94.5"/></clipPath><clipPath id="pcLXkwenXLlO"><path fill="none" stroke="none" d="M 60.5 94.5 L 1436.5 94.5 L 1436.5 445.5 L 60.5 445.5 L 60.5 94.5"/></clipPath><clipPath id="MsXGOQrZeyyf"><path fill="none" stroke="none" d="M 60.5 94.5 L 1436.5 94.5 L 1436.5 445.5 L 60.5 445.5 L 60.5 94.5"/></clipPath><clipPath id="xuBwBaGOCzEo"><path fill="none" stroke="none" d="M 60.5 94.5 L 1436.5 94.5 L 1436.5 445.5 L 60.5 445.5 L 60.5 94.5"/></clipPath><clipPath id="JFnbnJXnhPTi"><path fill="none" stroke="none" d="M 60.5 94.5 L 1436.5 94.5 L 1436.5 445.5 L 60.5 445.5 L 60.5 94.5"/></clipPath><clipPath id="iqfFSTFXUOvR"><path fill="none" stroke="none" d="M 60.5 94.5 L 1436.5 94.5 L 1436.5 445.5 L 60.5 445.5 L 60.5 94.5"/></clipPath><clipPath id="TBBOyXkepGdC"><path fill="none" stroke="none" d="M 60.5 94.5 L 1436.5 94.5 L 1436.5 445.5 L 60.5 445.5 L 60.5 94.5"/></clipPath><clipPath id="vkATTPwCIVpV"><path fill="none" stroke="none" d="M 60.5 94.5 L 1436.5 94.5 L 1436.5 445.5 L 60.5 445.5 L 60.5 94.5"/></clipPath><clipPath id="oTCCpJOQwozf"><path fill="none" stroke="none" d="M 60.5 94.5 L 1436.5 94.5 L 1436.5 445.5 L 60.5 445.5 L 60.5 94.5"/></clipPath><clipPath id="EvklXMIKwTEG"><path fill="none" stroke="none" d="M 60.5 94.5 L 1436.5 94.5 L 1436.5 445.5 L 60.5 445.5 L 60.5 94.5"/></clipPath></defs><path fill="rgb(255,255,255)" stroke="none" paint-order="stroke" d="M 0.5 0.5 L 1466.5 0.5 L 1466.5 500.5 L 0.5 500.5 L 0.5 0.5" fill-opacity="1"/><rect fill="#FFFFFF" stroke="none" x="60" y="94" width="1376" height="351" transform="matrix(1, 0, 0, 1, 0.5, 0.5)"/><path fill="rgb(255,255,255)" stroke="none" paint-order="stroke" d="M 60.5 94.5 L 1436.5 94.5 L 1436.5 445.5 L 60.5 445.5 L 60.5 94.5" fill-opacity="1"/><path fill="none" stroke="rgb(229,229,229)" paint-order="fill" d="M 60.5 94.5 L 1436.5 94.5 L 1436.5 445.5 L 60.5 445.5 L 60.5 94.5" stroke-opacity="1" stroke-linejoin="bevel" stroke-miterlimit="10" stroke-dasharray=""/><path fill="rgb(48,162,218)" stroke="rgb(0,0,0)" paint-order="fill" d="M 181.08375549316406 332.5440673828125 A 6 6 0 0 1 169.08375549316406 332.5440673828125 A 6 6 0 0 1 181.08375549316406 332.5440673828125" fill-opacity="1" clip-path="url(#AESPHgatFpeM)" stroke-opacity="1" stroke-linejoin="bevel" stroke-miterlimit="10" stroke-dasharray=""/><path fill="rgb(48,162,218)" stroke="rgb(0,0,0)" paint-order="fill" d="M 754.5233154296875 263.9473571777344 A 6 6 0 0 1 742.5233154296875 263.9473571777344 A 6 6 0 0 1 754.5233154296875 263.9473571777344" fill-opacity="1" clip-path="url(#AESPHgatFpeM)" stroke-opacity="1" stroke-linejoin="bevel" stroke-miterlimit="10" stroke-dasharray=""/><path fill="rgb(48,162,218)" stroke="rgb(0,0,0)" paint-order="fill" d="M 1116.2376708984375 188.62545776367188 A 6 6 0 0 1 1104.2376708984375 188.62545776367188 A 6 6 0 0 1 1116.2376708984375 188.62545776367188" fill-opacity="1" clip-path="url(#AESPHgatFpeM)" stroke-opacity="1" stroke-linejoin="bevel" stroke-miterlimit="10" stroke-dasharray=""/><path fill="rgb(48,162,218)" stroke="rgb(0,0,0)" paint-order="fill" d="M 1327.8472900390625 113.30357360839844 A 6 6 0 0 1 1315.8472900390625 113.30357360839844 A 6 6 0 0 1 1327.8472900390625 113.30357360839844" fill-opacity="1" clip-path="url(#AESPHgatFpeM)" stroke-opacity="1" stroke-linejoin="bevel" stroke-miterlimit="10" stroke-dasharray=""/><path fill="rgb(252,79,48)" stroke="rgb(0,0,0)" paint-order="fill" d="M 181.2486572265625 415.9361572265625 A 6 6 0 0 1 169.2486572265625 415.9361572265625 A 6 6 0 0 1 181.2486572265625 415.9361572265625" fill-opacity="1" clip-path="url(#rEtJagPCyapO)" stroke-opacity="1" stroke-linejoin="bevel" stroke-miterlimit="10" stroke-dasharray=""/><path fill="rgb(252,79,48)" stroke="rgb(0,0,0)" paint-order="fill" d="M 754.4453735351562 340.6142578125 A 6 6 0 0 1 742.4453735351562 340.6142578125 A 6 6 0 0 1 754.4453735351562 340.6142578125" fill-opacity="1" clip-path="url(#rEtJagPCyapO)" stroke-opacity="1" stroke-linejoin="bevel" stroke-miterlimit="10" stroke-dasharray=""/><path fill="rgb(252,79,48)" stroke="rgb(0,0,0)" paint-order="fill" d="M 904.6221313476562 311.0235290527344 A 6 6 0 0 1 892.6221313476562 311.0235290527344 A 6 6 0 0 1 904.6221313476562 311.0235290527344" fill-opacity="1" clip-path="url(#rEtJagPCyapO)" stroke-opacity="1" stroke-linejoin="bevel" stroke-miterlimit="10" stroke-dasharray=""/><path fill="rgb(229,174,56)" stroke="rgb(0,0,0)" paint-order="fill" d="M 181.23072814941406 417.28118896484375 A 6 6 0 0 1 169.23072814941406 417.28118896484375 A 6 6 0 0 1 181.23072814941406 417.28118896484375" fill-opacity="1" clip-path="url(#zHVqgZmtzmAS)" stroke-opacity="1" stroke-linejoin="bevel" stroke-miterlimit="10" stroke-dasharray=""/><path fill="rgb(229,174,56)" stroke="rgb(0,0,0)" paint-order="fill" d="M 542.8108520507812 362.1347961425781 A 6 6 0 0 1 530.8108520507812 362.1347961425781 A 6 6 0 0 1 542.8108520507812 362.1347961425781" fill-opacity="1" clip-path="url(#zHVqgZmtzmAS)" stroke-opacity="1" stroke-linejoin="bevel" stroke-miterlimit="10" stroke-dasharray=""/><path fill="rgb(229,174,56)" stroke="rgb(0,0,0)" paint-order="fill" d="M 754.5365600585938 331.19903564453125 A 6 6 0 0 1 742.5365600585938 331.19903564453125 A 6 6 0 0 1 754.5365600585938 331.19903564453125" fill-opacity="1" clip-path="url(#zHVqgZmtzmAS)" stroke-opacity="1" stroke-linejoin="bevel" stroke-miterlimit="10" stroke-dasharray=""/><path fill="rgb(229,174,56)" stroke="rgb(0,0,0)" paint-order="fill" d="M 904.6083984375 301.6083068847656 A 6 6 0 0 1 892.6083984375 301.6083068847656 A 6 6 0 0 1 904.6083984375 301.6083068847656" fill-opacity="1" clip-path="url(#zHVqgZmtzmAS)" stroke-opacity="1" stroke-linejoin="bevel" stroke-miterlimit="10" stroke-dasharray=""/><path fill="rgb(229,174,56)" stroke="rgb(0,0,0)" paint-order="fill" d="M 1116.2392578125 254.53211975097656 A 6 6 0 0 1 1104.2392578125 254.53211975097656 A 6 6 0 0 1 1116.2392578125 254.53211975097656" fill-opacity="1" clip-path="url(#zHVqgZmtzmAS)" stroke-opacity="1" stroke-linejoin="bevel" stroke-miterlimit="10" stroke-dasharray=""/><path fill="rgb(109,144,79)" stroke="rgb(0,0,0)" paint-order="fill" d="M 181.08990478515625 406.52093505859375 A 6 6 0 0 1 169.08990478515625 406.52093505859375 A 6 6 0 0 1 181.08990478515625 406.52093505859375" fill-opacity="1" clip-path="url(#rUwzWDrTknCF)" stroke-opacity="1" stroke-linejoin="bevel" stroke-miterlimit="10" stroke-dasharray=""/><path fill="rgb(109,144,79)" stroke="rgb(0,0,0)" paint-order="fill" d="M 542.912841796875 352.7195739746094 A 6 6 0 0 1 530.912841796875 352.7195739746094 A 6 6 0 0 1 542.912841796875 352.7195739746094" fill-opacity="1" clip-path="url(#rUwzWDrTknCF)" stroke-opacity="1" stroke-linejoin="bevel" stroke-miterlimit="10" stroke-dasharray=""/><path fill="rgb(109,144,79)" stroke="rgb(0,0,0)" paint-order="fill" d="M 754.558837890625 297.57318115234375 A 6 6 0 0 1 742.558837890625 297.57318115234375 A 6 6 0 0 1 754.558837890625 297.57318115234375" fill-opacity="1" clip-path="url(#rUwzWDrTknCF)" stroke-opacity="1" stroke-linejoin="bevel" stroke-miterlimit="10" stroke-dasharray=""/><path fill="rgb(139,139,139)" stroke="rgb(0,0,0)" paint-order="fill" d="M 181.12767028808594 426.6964416503906 A 6 6 0 0 1 169.12767028808594 426.6964416503906 A 6 6 0 0 1 181.12767028808594 426.6964416503906" fill-opacity="1" clip-path="url(#VSfVLSvVVDgm)" stroke-opacity="1" stroke-linejoin="bevel" stroke-miterlimit="10" stroke-dasharray=""/><path fill="rgb(139,139,139)" stroke="rgb(0,0,0)" paint-order="fill" d="M 542.9501342773438 378.27520751953125 A 6 6 0 0 1 530.9501342773438 378.27520751953125 A 6 6 0 0 1 542.9501342773438 378.27520751953125" fill-opacity="1" clip-path="url(#VSfVLSvVVDgm)" stroke-opacity="1" stroke-linejoin="bevel" stroke-miterlimit="10" stroke-dasharray=""/><path fill="rgb(139,139,139)" stroke="rgb(0,0,0)" paint-order="fill" d="M 754.4501953125 289.50299072265625 A 6 6 0 0 1 742.4501953125 289.50299072265625 A 6 6 0 0 1 754.4501953125 289.50299072265625" fill-opacity="1" clip-path="url(#VSfVLSvVVDgm)" stroke-opacity="1" stroke-linejoin="bevel" stroke-miterlimit="10" stroke-dasharray=""/><path fill="rgb(23,190,207)" stroke="rgb(0,0,0)" paint-order="fill" d="M 1116.2513427734375 302.9533386230469 A 6 6 0 0 1 1104.2513427734375 302.9533386230469 A 6 6 0 0 1 1116.2513427734375 302.9533386230469" fill-opacity="1" clip-path="url(#qLAbpLMtOfgm)" stroke-opacity="1" stroke-linejoin="bevel" stroke-miterlimit="10" stroke-dasharray=""/><path fill="rgb(148,103,189)" stroke="rgb(0,0,0)" paint-order="fill" d="M 392.6647033691406 362.1347961425781 A 6 6 0 0 1 380.6647033691406 362.1347961425781 A 6 6 0 0 1 392.6647033691406 362.1347961425781" fill-opacity="1" clip-path="url(#VdLzWJsLtbaS)" stroke-opacity="1" stroke-linejoin="bevel" stroke-miterlimit="10" stroke-dasharray=""/><path fill="rgb(148,103,189)" stroke="rgb(0,0,0)" paint-order="fill" d="M 754.4627075195312 300.26324462890625 A 6 6 0 0 1 742.4627075195312 300.26324462890625 A 6 6 0 0 1 754.4627075195312 300.26324462890625" fill-opacity="1" clip-path="url(#VdLzWJsLtbaS)" stroke-opacity="1" stroke-linejoin="bevel" stroke-miterlimit="10" stroke-dasharray=""/><path fill="rgb(214,39,40)" stroke="rgb(0,0,0)" paint-order="fill" d="M 181.32284545898438 376.93017578125 A 6 6 0 0 1 169.32284545898438 376.93017578125 A 6 6 0 0 1 181.32284545898438 376.93017578125" fill-opacity="1" clip-path="url(#wPxHLrznxfmt)" stroke-opacity="1" stroke-linejoin="bevel" stroke-miterlimit="10" stroke-dasharray=""/><path fill="rgb(214,39,40)" stroke="rgb(0,0,0)" paint-order="fill" d="M 542.865966796875 325.81890869140625 A 6 6 0 0 1 530.865966796875 325.81890869140625 A 6 6 0 0 1 542.865966796875 325.81890869140625" fill-opacity="1" clip-path="url(#wPxHLrznxfmt)" stroke-opacity="1" stroke-linejoin="bevel" stroke-miterlimit="10" stroke-dasharray=""/><path fill="rgb(214,39,40)" stroke="rgb(0,0,0)" paint-order="fill" d="M 754.5428466796875 289.50299072265625 A 6 6 0 0 1 742.5428466796875 289.50299072265625 A 6 6 0 0 1 754.5428466796875 289.50299072265625" fill-opacity="1" clip-path="url(#wPxHLrznxfmt)" stroke-opacity="1" stroke-linejoin="bevel" stroke-miterlimit="10" stroke-dasharray=""/><path fill="rgb(31,119,180)" stroke="rgb(0,0,0)" paint-order="fill" d="M 542.8871459960938 257.22216796875 A 6 6 0 0 1 530.8871459960938 257.22216796875 A 6 6 0 0 1 542.8871459960938 257.22216796875" fill-opacity="1" clip-path="url(#zDrhaHwhWScU)" stroke-opacity="1" stroke-linejoin="bevel" stroke-miterlimit="10" stroke-dasharray=""/><path fill="rgb(31,119,180)" stroke="rgb(0,0,0)" paint-order="fill" d="M 904.6265869140625 216.8711700439453 A 6 6 0 0 1 892.6265869140625 216.8711700439453 A 6 6 0 0 1 904.6265869140625 216.8711700439453" fill-opacity="1" clip-path="url(#zDrhaHwhWScU)" stroke-opacity="1" stroke-linejoin="bevel" stroke-miterlimit="10" stroke-dasharray=""/><path fill="none" stroke="rgb(48,162,218)" paint-order="fill" d="M 175.1666717529297 332.5440673828125 L 748.5 263.9473571777344 L 1110.2330322265625 188.62545776367188 L 1321.8333740234375 113.30357360839844" stroke-opacity="1" stroke-linejoin="bevel" stroke-miterlimit="10" stroke-width="2" stroke-dasharray="" clip-path="url(#zGBzScMFkfaT)"/><path fill="none" stroke="rgb(252,79,48)" paint-order="fill" d="M 175.1666717529297 415.9361572265625 L 748.5 340.6142578125 L 898.6328125 311.0235290527344" stroke-opacity="1" stroke-linejoin="bevel" stroke-miterlimit="10" stroke-width="2" stroke-dasharray="" clip-path="url(#pcLXkwenXLlO)"/><path fill="none" stroke="rgb(229,174,56)" paint-order="fill" d="M 175.1666717529297 417.28118896484375 L 536.8997192382812 362.1347961425781 L 748.5 331.19903564453125 L 898.6328125 301.6083068847656 L 1110.2330322265625 254.53211975097656" stroke-opacity="1" stroke-linejoin="bevel" stroke-miterlimit="10" stroke-width="2" stroke-dasharray="" clip-path="url(#MsXGOQrZeyyf)"/><path fill="none" stroke="rgb(109,144,79)" paint-order="fill" d="M 175.1666717529297 406.52093505859375 L 536.8997192382812 352.7195739746094 L 748.5 297.57318115234375" stroke-opacity="1" stroke-linejoin="bevel" stroke-miterlimit="10" stroke-width="2" stroke-dasharray="" clip-path="url(#xuBwBaGOCzEo)"/><path fill="none" stroke="rgb(139,139,139)" paint-order="fill" d="M 175.1666717529297 426.6964416503906 L 536.8997192382812 378.27520751953125 L 748.5 289.50299072265625" stroke-opacity="1" stroke-linejoin="bevel" stroke-miterlimit="10" stroke-width="2" stroke-dasharray="" clip-path="url(#JFnbnJXnhPTi)"/><path fill="none" stroke="rgb(23,190,207)" paint-order="fill" d="M 1110.2330322265625 302.9533386230469" stroke-opacity="1" stroke-linejoin="bevel" stroke-miterlimit="10" stroke-width="2" stroke-dasharray="" clip-path="url(#iqfFSTFXUOvR)"/><path fill="none" stroke="rgb(148,103,189)" paint-order="fill" d="M 386.7669372558594 362.1347961425781 L 748.5 300.26324462890625" stroke-opacity="1" stroke-linejoin="bevel" stroke-miterlimit="10" stroke-width="2" stroke-dasharray="" clip-path="url(#TBBOyXkepGdC)"/><path fill="none" stroke="rgb(214,39,40)" paint-order="fill" d="M 175.1666717529297 376.93017578125 L 536.8997192382812 325.81890869140625 L 748.5 289.50299072265625" stroke-opacity="1" stroke-linejoin="bevel" stroke-miterlimit="10" stroke-width="2" stroke-dasharray="" clip-path="url(#vkATTPwCIVpV)"/><path fill="none" stroke="rgb(31,119,180)" paint-order="fill" d="M 536.8997192382812 257.22216796875 L 898.6328125 216.8711700439453" stroke-opacity="1" stroke-linejoin="bevel" stroke-miterlimit="10" stroke-width="2" stroke-dasharray="" clip-path="url(#oTCCpJOQwozf)"/><path fill="none" stroke="rgb(0,0,0)" paint-order="fill" d="M 60.5 445.5 L 1436.5 445.5" stroke-opacity="1" stroke-linejoin="bevel" stroke-miterlimit="10" stroke-dasharray=""/><path fill="none" stroke="rgb(0,0,0)" paint-order="fill" d="M 477.5 451.5 L 477.5 443.5 M 839.5 451.5 L 839.5 443.5 M 1051.5 451.5 L 1051.5 443.5 M 1201.5 451.5 L 1201.5 443.5 M 1317.5 451.5 L 1317.5 443.5 M 1412.5 451.5 L 1412.5 443.5" stroke-opacity="1" stroke-linejoin="bevel" stroke-miterlimit="10" stroke-dasharray=""/><path fill="none" stroke="rgb(0,0,0)" paint-order="fill" d="M 422.5 449.5 L 422.5 445.5 M 361.5 449.5 L 361.5 445.5 M 291.5 449.5 L 291.5 445.5 M 211.5 449.5 L 211.5 445.5 M 116.5 449.5 L 116.5 445.5 M 477.5 449.5 L 477.5 445.5 M 527.5 449.5 L 527.5 445.5 M 572.5 449.5 L 572.5 445.5 M 614.5 449.5 L 614.5 445.5 M 653.5 449.5 L 653.5 445.5 M 689.5 449.5 L 689.5 445.5 M 723.5 449.5 L 723.5 445.5 M 754.5 449.5 L 754.5 445.5 M 784.5 449.5 L 784.5 445.5 M 812.5 449.5 L 812.5 445.5 M 839.5 449.5 L 839.5 445.5 M 864.5 449.5 L 864.5 445.5 M 889.5 449.5 L 889.5 445.5 M 912.5 449.5 L 912.5 445.5 M 934.5 449.5 L 934.5 445.5 M 955.5 449.5 L 955.5 445.5 M 976.5 449.5 L 976.5 445.5 M 996.5 449.5 L 996.5 445.5 M 1015.5 449.5 L 1015.5 445.5 M 1033.5 449.5 L 1033.5 445.5 M 1051.5 449.5 L 1051.5 445.5 M 1068.5 449.5 L 1068.5 445.5 M 1084.5 449.5 L 1084.5 445.5 M 1100.5 449.5 L 1100.5 445.5 M 1116.5 449.5 L 1116.5 445.5 M 1131.5 449.5 L 1131.5 445.5 M 1146.5 449.5 L 1146.5 445.5 M 1160.5 449.5 L 1160.5 445.5 M 1174.5 449.5 L 1174.5 445.5 M 1188.5 449.5 L 1188.5 445.5 M 1201.5 449.5 L 1201.5 445.5 M 1214.5 449.5 L 1214.5 445.5 M 1226.5 449.5 L 1226.5 445.5 M 1238.5 449.5 L 1238.5 445.5 M 1250.5 449.5 L 1250.5 445.5 M 1262.5 449.5 L 1262.5 445.5 M 1274.5 449.5 L 1274.5 445.5 M 1285.5 449.5 L 1285.5 445.5 M 1296.5 449.5 L 1296.5 445.5 M 1307.5 449.5 L 1307.5 445.5 M 1317.5 449.5 L 1317.5 445.5 M 1328.5 449.5 L 1328.5 445.5 M 1338.5 449.5 L 1338.5 445.5 M 1348.5 449.5 L 1348.5 445.5 M 1357.5 449.5 L 1357.5 445.5 M 1367.5 449.5 L 1367.5 445.5 M 1376.5 449.5 L 1376.5 445.5 M 1386.5 449.5 L 1386.5 445.5 M 1395.5 449.5 L 1395.5 445.5 M 1404.5 449.5 L 1404.5 445.5 M 1412.5 449.5 L 1412.5 445.5 M 1421.5 449.5 L 1421.5 445.5 M 1429.5 449.5 L 1429.5 445.5" stroke-opacity="1" stroke-linejoin="bevel" stroke-miterlimit="10" stroke-dasharray=""/><text fill="rgb(68,68,68)" stroke="none" font-family="helvetica" font-size="11pt" font-style="normal" font-weight="normal" text-decoration="normal" x="465.0318355560303" y="466.5201822916667" text-anchor="start" dominant-baseline="alphabetic" transform="matrix(1, 0, 0, 1, 0.5, 0.5)" fill-opacity="1">500</text><text fill="rgb(68,68,68)" stroke="none" font-family="helvetica" font-size="11pt" font-style="normal" font-weight="normal" text-decoration="normal" x="822.689868927002" y="466.5201822916667" text-anchor="start" dominant-baseline="alphabetic" transform="matrix(1, 0, 0, 1, 0.5, 0.5)" fill-opacity="1">1000</text><text fill="rgb(68,68,68)" stroke="none" font-family="helvetica" font-size="11pt" font-style="normal" font-weight="normal" text-decoration="normal" x="1034.290210723877" y="466.5201822916667" text-anchor="start" dominant-baseline="alphabetic" transform="matrix(1, 0, 0, 1, 0.5, 0.5)" fill-opacity="1">1500</text><text fill="rgb(68,68,68)" stroke="none" font-family="helvetica" font-size="11pt" font-style="normal" font-weight="normal" text-decoration="normal" x="1184.4229011535645" y="466.5201822916667" text-anchor="start" dominant-baseline="alphabetic" transform="matrix(1, 0, 0, 1, 0.5, 0.5)" fill-opacity="1">2000</text><text fill="rgb(68,68,68)" stroke="none" font-family="helvetica" font-size="11pt" font-style="normal" font-weight="normal" text-decoration="normal" x="1300.874927520752" y="466.5201822916667" text-anchor="start" dominant-baseline="alphabetic" transform="matrix(1, 0, 0, 1, 0.5, 0.5)" fill-opacity="1">2500</text><text fill="rgb(68,68,68)" stroke="none" font-family="helvetica" font-size="11pt" font-style="normal" font-weight="normal" text-decoration="normal" x="1396.0232429504395" y="466.5201822916667" text-anchor="start" dominant-baseline="alphabetic" transform="matrix(1, 0, 0, 1, 0.5, 0.5)" fill-opacity="1">3000</text><text fill="rgb(68,68,68)" stroke="none" font-family="helvetica" font-size="14pt" font-style="italic" font-weight="normal" text-decoration="normal" x="644.7750015258789" y="492.4212259928386" text-anchor="start" dominant-baseline="alphabetic" transform="matrix(1, 0, 0, 1, 0.5, 0.5)" fill-opacity="1">atmospheric CO2 [ppmv]</text><path fill="none" stroke="rgb(0,0,0)" paint-order="fill" d="M 60.5 445.5 L 60.5 94.5" stroke-opacity="1" stroke-linejoin="bevel" stroke-miterlimit="10" stroke-dasharray=""/><path fill="none" stroke="rgb(0,0,0)" paint-order="fill" d="M 54.5 414.5 L 62.5 414.5 M 54.5 347.5 L 62.5 347.5 M 54.5 280.5 L 62.5 280.5 M 54.5 212.5 L 62.5 212.5 M 54.5 145.5 L 62.5 145.5" stroke-opacity="1" stroke-linejoin="bevel" stroke-miterlimit="10" stroke-dasharray=""/><path fill="none" stroke="rgb(0,0,0)" paint-order="fill" d="M 56.5 428.5 L 60.5 428.5 M 56.5 441.5 L 60.5 441.5 M 56.5 414.5 L 60.5 414.5 M 56.5 401.5 L 60.5 401.5 M 56.5 387.5 L 60.5 387.5 M 56.5 374.5 L 60.5 374.5 M 56.5 360.5 L 60.5 360.5 M 56.5 347.5 L 60.5 347.5 M 56.5 333.5 L 60.5 333.5 M 56.5 320.5 L 60.5 320.5 M 56.5 306.5 L 60.5 306.5 M 56.5 293.5 L 60.5 293.5 M 56.5 280.5 L 60.5 280.5 M 56.5 266.5 L 60.5 266.5 M 56.5 253.5 L 60.5 253.5 M 56.5 239.5 L 60.5 239.5 M 56.5 226.5 L 60.5 226.5 M 56.5 212.5 L 60.5 212.5 M 56.5 199.5 L 60.5 199.5 M 56.5 185.5 L 60.5 185.5 M 56.5 172.5 L 60.5 172.5 M 56.5 159.5 L 60.5 159.5 M 56.5 145.5 L 60.5 145.5 M 56.5 132.5 L 60.5 132.5 M 56.5 118.5 L 60.5 118.5 M 56.5 105.5 L 60.5 105.5" stroke-opacity="1" stroke-linejoin="bevel" stroke-miterlimit="10" stroke-dasharray=""/><text fill="rgb(68,68,68)" stroke="none" font-family="helvetica" font-size="11pt" font-style="normal" font-weight="normal" text-decoration="normal" x="32.70000076293945" y="419.3512166341146" text-anchor="start" dominant-baseline="alphabetic" transform="matrix(1, 0, 0, 1, 0.5, 0.5)" fill-opacity="1">10</text><text fill="rgb(68,68,68)" stroke="none" font-family="helvetica" font-size="11pt" font-style="normal" font-weight="normal" text-decoration="normal" x="32.70000076293945" y="352.09953816731775" text-anchor="start" dominant-baseline="alphabetic" transform="matrix(1, 0, 0, 1, 0.5, 0.5)" fill-opacity="1">15</text><text fill="rgb(68,68,68)" stroke="none" font-family="helvetica" font-size="11pt" font-style="normal" font-weight="normal" text-decoration="normal" x="32.70000076293945" y="284.84782918294275" text-anchor="start" dominant-baseline="alphabetic" transform="matrix(1, 0, 0, 1, 0.5, 0.5)" fill-opacity="1">20</text><text fill="rgb(68,68,68)" stroke="none" font-family="helvetica" font-size="11pt" font-style="normal" font-weight="normal" text-decoration="normal" x="32.70000076293945" y="217.59615071614581" text-anchor="start" dominant-baseline="alphabetic" transform="matrix(1, 0, 0, 1, 0.5, 0.5)" fill-opacity="1">25</text><text fill="rgb(68,68,68)" stroke="none" font-family="helvetica" font-size="11pt" font-style="normal" font-weight="normal" text-decoration="normal" x="32.70000076293945" y="150.34447224934894" text-anchor="start" dominant-baseline="alphabetic" transform="matrix(1, 0, 0, 1, 0.5, 0.5)" fill-opacity="1">30</text><text fill="rgb(68,68,68)" stroke="none" font-family="helvetica" font-size="14pt" font-style="italic" font-weight="normal" text-decoration="normal" x="-50.124996185302734" y="265.37109375" text-anchor="start" dominant-baseline="alphabetic" transform="matrix(6.123233995736766e-17, -1, 1, 6.123233995736766e-17, -244.29999923706055, 294.70000076293945)" fill-opacity="1">annual_mean [°C]</text><path fill="rgb(255,255,255)" stroke="rgb(229,229,229)" paint-order="fill" d="M 60.5 54.5 L 755.2666683197021 54.5 L 755.2666683197021 94.5 L 60.5 94.5 L 60.5 54.5" fill-opacity="0.9490196078431372" stroke-opacity="0.5019607843137255" stroke-linejoin="bevel" stroke-miterlimit="10" stroke-dasharray=""/><text fill="rgb(68,68,68)" stroke="none" font-family="helvetica" font-size="10.8pt" font-style="normal" font-weight="normal" text-decoration="normal" x="95" y="74" text-anchor="start" dominant-baseline="central" transform="matrix(1, 0, 0, 1, 0.5, 0.5)" fill-opacity="1">CESM</text><path fill="rgb(48,162,218)" stroke="rgb(0,0,0)" paint-order="fill" d="M 84.5 74.5 A 4 4 0 0 1 76.5 74.5 A 4 4 0 0 1 84.5 74.5" fill-opacity="1" stroke-opacity="1" stroke-linejoin="bevel" stroke-miterlimit="10" stroke-dasharray=""/><path fill="none" stroke="rgb(48,162,218)" paint-order="fill" d="M 70.5 74.5 L 90.5 74.5" stroke-opacity="1" stroke-linejoin="bevel" stroke-miterlimit="10" stroke-width="2" stroke-dasharray=""/><text fill="rgb(68,68,68)" stroke="none" font-family="helvetica" font-size="10.8pt" font-style="normal" font-weight="normal" text-decoration="normal" x="164.5999984741211" y="74" text-anchor="start" dominant-baseline="central" transform="matrix(1, 0, 0, 1, 0.5, 0.5)" fill-opacity="1">COSMOS</text><path fill="rgb(252,79,48)" stroke="rgb(0,0,0)" paint-order="fill" d="M 154.0999984741211 74.5 A 4 4 0 0 1 146.0999984741211 74.5 A 4 4 0 0 1 154.0999984741211 74.5" fill-opacity="1" stroke-opacity="1" stroke-linejoin="bevel" stroke-miterlimit="10" stroke-dasharray=""/><path fill="none" stroke="rgb(252,79,48)" paint-order="fill" d="M 140.0999984741211 74.5 L 160.0999984741211 74.5" stroke-opacity="1" stroke-linejoin="bevel" stroke-miterlimit="10" stroke-width="2" stroke-dasharray=""/><text fill="rgb(68,68,68)" stroke="none" font-family="helvetica" font-size="10.8pt" font-style="normal" font-weight="normal" text-decoration="normal" x="256.5999984741211" y="74" text-anchor="start" dominant-baseline="central" transform="matrix(1, 0, 0, 1, 0.5, 0.5)" fill-opacity="1">GFDL</text><path fill="rgb(229,174,56)" stroke="rgb(0,0,0)" paint-order="fill" d="M 246.0999984741211 74.5 A 4 4 0 0 1 238.0999984741211 74.5 A 4 4 0 0 1 246.0999984741211 74.5" fill-opacity="1" stroke-opacity="1" stroke-linejoin="bevel" stroke-miterlimit="10" stroke-dasharray=""/><path fill="none" stroke="rgb(229,174,56)" paint-order="fill" d="M 232.0999984741211 74.5 L 252.0999984741211 74.5" stroke-opacity="1" stroke-linejoin="bevel" stroke-miterlimit="10" stroke-width="2" stroke-dasharray=""/><text fill="rgb(68,68,68)" stroke="none" font-family="helvetica" font-size="10.8pt" font-style="normal" font-weight="normal" text-decoration="normal" x="323.0166664123535" y="74" text-anchor="start" dominant-baseline="central" transform="matrix(1, 0, 0, 1, 0.5, 0.5)" fill-opacity="1">HadCM3</text><path fill="rgb(109,144,79)" stroke="rgb(0,0,0)" paint-order="fill" d="M 312.5166664123535 74.5 A 4 4 0 0 1 304.5166664123535 74.5 A 4 4 0 0 1 312.5166664123535 74.5" fill-opacity="1" stroke-opacity="1" stroke-linejoin="bevel" stroke-miterlimit="10" stroke-dasharray=""/><path fill="none" stroke="rgb(109,144,79)" paint-order="fill" d="M 298.5166664123535 74.5 L 318.5166664123535 74.5" stroke-opacity="1" stroke-linejoin="bevel" stroke-miterlimit="10" stroke-width="2" stroke-dasharray=""/><text fill="rgb(68,68,68)" stroke="none" font-family="helvetica" font-size="10.8pt" font-style="normal" font-weight="normal" text-decoration="normal" x="407.8666648864746" y="74" text-anchor="start" dominant-baseline="central" transform="matrix(1, 0, 0, 1, 0.5, 0.5)" fill-opacity="1">HadCM3L</text><path fill="rgb(139,139,139)" stroke="rgb(0,0,0)" paint-order="fill" d="M 397.3666648864746 74.5 A 4 4 0 0 1 389.3666648864746 74.5 A 4 4 0 0 1 397.3666648864746 74.5" fill-opacity="1" stroke-opacity="1" stroke-linejoin="bevel" stroke-miterlimit="10" stroke-dasharray=""/><path fill="none" stroke="rgb(139,139,139)" paint-order="fill" d="M 383.3666648864746 74.5 L 403.3666648864746 74.5" stroke-opacity="1" stroke-linejoin="bevel" stroke-miterlimit="10" stroke-width="2" stroke-dasharray=""/><text fill="rgb(68,68,68)" stroke="none" font-family="helvetica" font-size="10.8pt" font-style="normal" font-weight="normal" text-decoration="normal" x="500.7333335876465" y="74" text-anchor="start" dominant-baseline="central" transform="matrix(1, 0, 0, 1, 0.5, 0.5)" fill-opacity="1">INM</text><path fill="rgb(23,190,207)" stroke="rgb(0,0,0)" paint-order="fill" d="M 490.2333335876465 74.5 A 4 4 0 0 1 482.2333335876465 74.5 A 4 4 0 0 1 490.2333335876465 74.5" fill-opacity="1" stroke-opacity="1" stroke-linejoin="bevel" stroke-miterlimit="10" stroke-dasharray=""/><path fill="none" stroke="rgb(23,190,207)" paint-order="fill" d="M 476.2333335876465 74.5 L 496.2333335876465 74.5" stroke-opacity="1" stroke-linejoin="bevel" stroke-miterlimit="10" stroke-width="2" stroke-dasharray=""/><text fill="rgb(68,68,68)" stroke="none" font-family="helvetica" font-size="10.8pt" font-style="normal" font-weight="normal" text-decoration="normal" x="555.1333332061768" y="74" text-anchor="start" dominant-baseline="central" transform="matrix(1, 0, 0, 1, 0.5, 0.5)" fill-opacity="1">IPSL</text><path fill="rgb(148,103,189)" stroke="rgb(0,0,0)" paint-order="fill" d="M 544.6333332061768 74.5 A 4 4 0 0 1 536.6333332061768 74.5 A 4 4 0 0 1 544.6333332061768 74.5" fill-opacity="1" stroke-opacity="1" stroke-linejoin="bevel" stroke-miterlimit="10" stroke-dasharray=""/><path fill="none" stroke="rgb(148,103,189)" paint-order="fill" d="M 530.6333332061768 74.5 L 550.6333332061768 74.5" stroke-opacity="1" stroke-linejoin="bevel" stroke-miterlimit="10" stroke-width="2" stroke-dasharray=""/><text fill="rgb(68,68,68)" stroke="none" font-family="helvetica" font-size="10.8pt" font-style="normal" font-weight="normal" text-decoration="normal" x="614.3500003814697" y="74" text-anchor="start" dominant-baseline="central" transform="matrix(1, 0, 0, 1, 0.5, 0.5)" fill-opacity="1">MIROC</text><path fill="rgb(214,39,40)" stroke="rgb(0,0,0)" paint-order="fill" d="M 603.8500003814697 74.5 A 4 4 0 0 1 595.8500003814697 74.5 A 4 4 0 0 1 603.8500003814697 74.5" fill-opacity="1" stroke-opacity="1" stroke-linejoin="bevel" stroke-miterlimit="10" stroke-dasharray=""/><path fill="none" stroke="rgb(214,39,40)" paint-order="fill" d="M 589.8500003814697 74.5 L 609.8500003814697 74.5" stroke-opacity="1" stroke-linejoin="bevel" stroke-miterlimit="10" stroke-width="2" stroke-dasharray=""/><text fill="rgb(68,68,68)" stroke="none" font-family="helvetica" font-size="10.8pt" font-style="normal" font-weight="normal" text-decoration="normal" x="690.3500003814697" y="74" text-anchor="start" dominant-baseline="central" transform="matrix(1, 0, 0, 1, 0.5, 0.5)" fill-opacity="1">NorESM</text><path fill="rgb(31,119,180)" stroke="rgb(0,0,0)" paint-order="fill" d="M 679.8500003814697 74.5 A 4 4 0 0 1 671.8500003814697 74.5 A 4 4 0 0 1 679.8500003814697 74.5" fill-opacity="1" stroke-opacity="1" stroke-linejoin="bevel" stroke-miterlimit="10" stroke-dasharray=""/><path fill="none" stroke="rgb(31,119,180)" paint-order="fill" d="M 665.8500003814697 74.5 L 685.8500003814697 74.5" stroke-opacity="1" stroke-linejoin="bevel" stroke-miterlimit="10" stroke-width="2" stroke-dasharray=""/><text fill="rgb(68,68,68)" stroke="none" font-family="helvetica" font-size="14pt" font-style="normal" font-weight="bold" text-decoration="normal" x="60" y="24.934895833333332" text-anchor="start" dominant-baseline="alphabetic" transform="matrix(1, 0, 0, 1, 0.5, 0.5)" fill-opacity="1">DeepMIP (~55 Ma) near-surface air temperature (LAT = 46.6 / LON = -5.6)</text></svg>