<svg version="1.1" xmlns="http://www.w3.org/2000/svg" width="1466" height="500"><defs><clipPath id="ydgInuUXlMqu"><path fill="none" stroke="none" d="M 52.5 94.5 L 1436.5 94.5 L 1436.5 439.5 L 52.5 439.5 L 52.5 94.5"/></clipPath><clipPath id="rMeFgNcHSSEd"><path fill="none" stroke="none" d="M 52.5 94.5 L 1436.5 94.5 L 1436.5 439.5 L 52.5 439.5 L 52.5 94.5"/></clipPath><clipPath id="pFhzdntTZmZC"><path fill="none" stroke="none" d="M 52.5 94.5 L 1436.5 94.5 L 1436.5 439.5 L 52.5 439.5 L 52.5 94.5"/></clipPath><clipPath id="QrxaOiGLfiJg"><path fill="none" stroke="none" d="M 52.5 94.5 L 1436.5 94.5 L 1436.5 439.5 L 52.5 439.5 L 52.5 94.5"/></clipPath><clipPath id="CaIVQcnGAdSH"><path fill="none" stroke="none" d="M 52.5 94.5 L 1436.5 94.5 L 1436.5 439.5 L 52.5 439.5 L 52.5 94.5"/></clipPath><clipPath id="cqoSLTNvlKew"><path fill="none" stroke="none" d="M 52.5 94.5 L 1436.5 94.5 L 1436.5 439.5 L 52.5 439.5 L 52.5 94.5"/></clipPath><clipPath id="ZMIgMXItTysK"><path fill="none" stroke="none" d="M 52.5 94.5 L 1436.5 94.5 L 1436.5 439.5 L 52.5 439.5 L 52.5 94.5"/></clipPath><clipPath id="LEPkTsacyuNe"><path fill="none" stroke="none" d="M 52.5 94.5 L 1436.5 94.5 L 1436.5 439.5 L 52.5 439.5 L 52.5 94.5"/></clipPath><clipPath id="qDUeRkTFHfbi"><path fill="none" stroke="none" d="M 52.5 94.5 L 1436.5 94.5 L 1436.5 439.5 L 52.5 439.5 L 52.5 94.5"/></clipPath><clipPath id="lvWxTmGCxZVT"><path fill="none" stroke="none" d="M 52.5 94.5 L 1436.5 94.5 L 1436.5 439.5 L 52.5 439.5 L 52.5 94.5"/></clipPath><clipPath id="dUyLcGxwfBfL"><path fill="none" stroke="none" d="M 52.5 94.5 L 1436.5 94.5 L 1436.5 439.5 L 52.5 439.5 L 52.5 94.5"/></clipPath><clipPath id="shcxtCRPiQuc"><path fill="none" stroke="none" d="M 52.5 94.5 L 1436.5 94.5 L 1436.5 439.5 L 52.5 439.5 L 52.5 94.5"/></clipPath><clipPath id="ZAlUQSxzJTKF"><path fill="none" stroke="none" d="M 52.5 94.5 L 1436.5 94.5 L 1436.5 439.5 L 52.5 439.5 L 52.5 94.5"/></clipPath><clipPath id="xVRhiMylmklo"><path fill="none" stroke="none" d="M 52.5 94.5 L 1436.5 94.5 L 1436.5 439.5 L 52.5 439.5 L 52.5 94.5"/></clipPath><clipPath id="iDiNATtkTxny"><path fill="none" stroke="none" d="M 52.5 94.5 L 1436.5 94.5 L 1436.5 439.5 L 52.5 439.5 L 52.5 94.5"/></clipPath><clipPath id="iMSMtWLkWABu"><path fill="none" stroke="none" d="M 52.5 94.5 L 1436.5 94.5 L 1436.5 439.5 L 52.5 439.5 L 52.5 94.5"/></clipPath><clipPath id="dggWDPVXHxmc"><path fill="none" stroke="none" d="M 52.5 94.5 L 1436.5 94.5 L 1436.5 439.5 L 52.5 439.5 L 52.5 94.5"/></clipPath><clipPath id="UoDNkvMHQZfh"><path fill="none" stroke="none" d="M 52.5 94.5 L 1436.5 94.5 L 1436.5 439.5 L 52.5 439.5 L 52.5 94.5"/></clipPath><clipPath id="czqqepTpshxJ"><path fill="none" stroke="none" d="M 52.5 94.5 L 1436.5 94.5 L 1436.5 439.5 L 52.5 439.5 L 52.5 94.5"/></clipPath></defs><path fill="rgb(255,255,255)" stroke="none" paint-order="stroke" d="M 0.5 0.5 L 1466.5 0.5 L 1466.5 500.5 L 0.5 500.5 L 0.5 0.5" fill-opacity="1"/><rect fill="#FFFFFF" stroke="none" x="52" y="94" width="1384" height="345" transform="matrix(1, 0, 0, 1, 0.5, 0.5)"/><path fill="rgb(255,255,255)" stroke="none" paint-order="stroke" d="M 52.5 94.5 L 1436.5 94.5 L 1436.5 439.5 L 52.5 439.5 L 52.5 94.5" fill-opacity="1"/><path fill="none" stroke="rgb(229,229,229)" paint-order="fill" d="M 52.5 94.5 L 1436.5 94.5 L 1436.5 439.5 L 52.5 439.5 L 52.5 94.5" stroke-opacity="1" stroke-linejoin="bevel" stroke-miterlimit="10" stroke-dasharray=""/><path fill="rgb(0,0,0)" stroke="rgb(0,0,0)" paint-order="fill" d="M 314 178.5216522216797 A 2 2 0 0 1 310 178.5216522216797 A 2 2 0 0 1 314 178.5216522216797" fill-opacity="1" clip-path="url(#pFhzdntTZmZC)" stroke-opacity="1" stroke-linejoin="bevel" stroke-miterlimit="10" stroke-dasharray=""/><path fill="none" stroke="rgb(0,0,0)" paint-order="fill" d="M 139 322.7085876464844 L 139 322.7085876464844" stroke-opacity="1" stroke-linejoin="bevel" stroke-miterlimit="10" stroke-dasharray="" clip-path="url(#QrxaOiGLfiJg)"/><path fill="none" stroke="rgb(0,0,0)" paint-order="fill" d="M 312 237.50721740722656 L 312 240.78419494628906" stroke-opacity="1" stroke-linejoin="bevel" stroke-miterlimit="10" stroke-dasharray="" clip-path="url(#QrxaOiGLfiJg)"/><path fill="none" stroke="rgb(0,0,0)" paint-order="fill" d="M 485 185.0756072998047 L 485 185.0756072998047" stroke-opacity="1" stroke-linejoin="bevel" stroke-miterlimit="10" stroke-dasharray="" clip-path="url(#QrxaOiGLfiJg)"/><path fill="none" stroke="rgb(0,0,0)" paint-order="fill" d="M 658 145.75189208984375 L 658 171.96771240234375" stroke-opacity="1" stroke-linejoin="bevel" stroke-miterlimit="10" stroke-dasharray="" clip-path="url(#QrxaOiGLfiJg)"/><path fill="none" stroke="rgb(0,0,0)" paint-order="fill" d="M 831 112.98213958740234 L 831 139.1979522705078" stroke-opacity="1" stroke-linejoin="bevel" stroke-miterlimit="10" stroke-dasharray="" clip-path="url(#QrxaOiGLfiJg)"/><path fill="none" stroke="rgb(0,0,0)" paint-order="fill" d="M 1004 171.96771240234375 L 1004 191.6295623779297" stroke-opacity="1" stroke-linejoin="bevel" stroke-miterlimit="10" stroke-dasharray="" clip-path="url(#QrxaOiGLfiJg)"/><path fill="none" stroke="rgb(0,0,0)" paint-order="fill" d="M 1177 158.85980224609375 L 1177 191.6295623779297" stroke-opacity="1" stroke-linejoin="bevel" stroke-miterlimit="10" stroke-dasharray="" clip-path="url(#QrxaOiGLfiJg)"/><path fill="none" stroke="rgb(0,0,0)" paint-order="fill" d="M 1350 224.39932250976562 L 1350 224.39932250976562" stroke-opacity="1" stroke-linejoin="bevel" stroke-miterlimit="10" stroke-dasharray="" clip-path="url(#QrxaOiGLfiJg)"/><path fill="none" stroke="rgb(0,0,0)" paint-order="fill" d="M 139 421.0178527832031 L 139 368.58624267578125" stroke-opacity="1" stroke-linejoin="bevel" stroke-miterlimit="10" stroke-dasharray="" clip-path="url(#CaIVQcnGAdSH)"/><path fill="none" stroke="rgb(0,0,0)" paint-order="fill" d="M 312 283.3848876953125 L 312 281.74639892578125" stroke-opacity="1" stroke-linejoin="bevel" stroke-miterlimit="10" stroke-dasharray="" clip-path="url(#CaIVQcnGAdSH)"/><path fill="none" stroke="rgb(0,0,0)" paint-order="fill" d="M 485 185.0756072998047 L 485 185.0756072998047" stroke-opacity="1" stroke-linejoin="bevel" stroke-miterlimit="10" stroke-dasharray="" clip-path="url(#CaIVQcnGAdSH)"/><path fill="none" stroke="rgb(0,0,0)" paint-order="fill" d="M 658 257.1690673828125 L 658 217.84536743164062" stroke-opacity="1" stroke-linejoin="bevel" stroke-miterlimit="10" stroke-dasharray="" clip-path="url(#CaIVQcnGAdSH)"/><path fill="none" stroke="rgb(0,0,0)" paint-order="fill" d="M 831 250.61512756347656 L 831 214.56838989257812" stroke-opacity="1" stroke-linejoin="bevel" stroke-miterlimit="10" stroke-dasharray="" clip-path="url(#CaIVQcnGAdSH)"/><path fill="none" stroke="rgb(0,0,0)" paint-order="fill" d="M 1004 263.7230224609375 L 1004 237.50721740722656" stroke-opacity="1" stroke-linejoin="bevel" stroke-miterlimit="10" stroke-dasharray="" clip-path="url(#CaIVQcnGAdSH)"/><path fill="none" stroke="rgb(0,0,0)" paint-order="fill" d="M 1177 276.8309326171875 L 1177 250.61512756347656" stroke-opacity="1" stroke-linejoin="bevel" stroke-miterlimit="10" stroke-dasharray="" clip-path="url(#CaIVQcnGAdSH)"/><path fill="none" stroke="rgb(0,0,0)" paint-order="fill" d="M 1350 224.39932250976562 L 1350 224.39932250976562" stroke-opacity="1" stroke-linejoin="bevel" stroke-miterlimit="10" stroke-dasharray="" clip-path="url(#CaIVQcnGAdSH)"/><path fill="none" stroke="rgb(0,0,0)" paint-order="fill" d="M 104.4000015258789 421.0178527832031 L 173.59999084472656 421.0178527832031" stroke-opacity="1" stroke-linejoin="bevel" stroke-miterlimit="10" stroke-dasharray="" clip-path="url(#cqoSLTNvlKew)"/><path fill="none" stroke="rgb(0,0,0)" paint-order="fill" d="M 277.3999938964844 283.3848876953125 L 346.6000061035156 283.3848876953125" stroke-opacity="1" stroke-linejoin="bevel" stroke-miterlimit="10" stroke-dasharray="" clip-path="url(#cqoSLTNvlKew)"/><path fill="none" stroke="rgb(0,0,0)" paint-order="fill" d="M 450.3999938964844 185.0756072998047 L 519.6000366210938 185.0756072998047" stroke-opacity="1" stroke-linejoin="bevel" stroke-miterlimit="10" stroke-dasharray="" clip-path="url(#cqoSLTNvlKew)"/><path fill="none" stroke="rgb(0,0,0)" paint-order="fill" d="M 623.3999633789062 257.1690673828125 L 692.6000366210938 257.1690673828125" stroke-opacity="1" stroke-linejoin="bevel" stroke-miterlimit="10" stroke-dasharray="" clip-path="url(#cqoSLTNvlKew)"/><path fill="none" stroke="rgb(0,0,0)" paint-order="fill" d="M 796.4000244140625 250.61512756347656 L 865.5999755859375 250.61512756347656" stroke-opacity="1" stroke-linejoin="bevel" stroke-miterlimit="10" stroke-dasharray="" clip-path="url(#cqoSLTNvlKew)"/><path fill="none" stroke="rgb(0,0,0)" paint-order="fill" d="M 969.4000244140625 263.7230224609375 L 1038.5999755859375 263.7230224609375" stroke-opacity="1" stroke-linejoin="bevel" stroke-miterlimit="10" stroke-dasharray="" clip-path="url(#cqoSLTNvlKew)"/><path fill="none" stroke="rgb(0,0,0)" paint-order="fill" d="M 1142.4000244140625 276.8309326171875 L 1211.5999755859375 276.8309326171875" stroke-opacity="1" stroke-linejoin="bevel" stroke-miterlimit="10" stroke-dasharray="" clip-path="url(#cqoSLTNvlKew)"/><path fill="none" stroke="rgb(0,0,0)" paint-order="fill" d="M 1315.4000244140625 224.39932250976562 L 1384.5999755859375 224.39932250976562" stroke-opacity="1" stroke-linejoin="bevel" stroke-miterlimit="10" stroke-dasharray="" clip-path="url(#cqoSLTNvlKew)"/><path fill="none" stroke="rgb(0,0,0)" paint-order="fill" d="M 104.4000015258789 322.7085876464844 L 173.59999084472656 322.7085876464844" stroke-opacity="1" stroke-linejoin="bevel" stroke-miterlimit="10" stroke-dasharray="" clip-path="url(#ZMIgMXItTysK)"/><path fill="none" stroke="rgb(0,0,0)" paint-order="fill" d="M 277.3999938964844 237.50721740722656 L 346.6000061035156 237.50721740722656" stroke-opacity="1" stroke-linejoin="bevel" stroke-miterlimit="10" stroke-dasharray="" clip-path="url(#ZMIgMXItTysK)"/><path fill="none" stroke="rgb(0,0,0)" paint-order="fill" d="M 450.3999938964844 185.0756072998047 L 519.6000366210938 185.0756072998047" stroke-opacity="1" stroke-linejoin="bevel" stroke-miterlimit="10" stroke-dasharray="" clip-path="url(#ZMIgMXItTysK)"/><path fill="none" stroke="rgb(0,0,0)" paint-order="fill" d="M 623.3999633789062 145.75189208984375 L 692.6000366210938 145.75189208984375" stroke-opacity="1" stroke-linejoin="bevel" stroke-miterlimit="10" stroke-dasharray="" clip-path="url(#ZMIgMXItTysK)"/><path fill="none" stroke="rgb(0,0,0)" paint-order="fill" d="M 796.4000244140625 112.98213958740234 L 865.5999755859375 112.98213958740234" stroke-opacity="1" stroke-linejoin="bevel" stroke-miterlimit="10" stroke-dasharray="" clip-path="url(#ZMIgMXItTysK)"/><path fill="none" stroke="rgb(0,0,0)" paint-order="fill" d="M 969.4000244140625 171.96771240234375 L 1038.5999755859375 171.96771240234375" stroke-opacity="1" stroke-linejoin="bevel" stroke-miterlimit="10" stroke-dasharray="" clip-path="url(#ZMIgMXItTysK)"/><path fill="none" stroke="rgb(0,0,0)" paint-order="fill" d="M 1142.4000244140625 158.85980224609375 L 1211.5999755859375 158.85980224609375" stroke-opacity="1" stroke-linejoin="bevel" stroke-miterlimit="10" stroke-dasharray="" clip-path="url(#ZMIgMXItTysK)"/><path fill="none" stroke="rgb(0,0,0)" paint-order="fill" d="M 1315.4000244140625 224.39932250976562 L 1384.5999755859375 224.39932250976562" stroke-opacity="1" stroke-linejoin="bevel" stroke-miterlimit="10" stroke-dasharray="" clip-path="url(#ZMIgMXItTysK)"/><path fill="rgb(99,197,218)" stroke="rgb(0,0,0)" paint-order="fill" d="M 78.44999694824219 355.47833251953125 L 199.5500030517578 355.47833251953125 L 199.5500030517578 322.7085876464844 L 78.44999694824219 322.7085876464844 L 78.44999694824219 355.47833251953125" fill-opacity="1" clip-path="url(#LEPkTsacyuNe)" stroke-opacity="1" stroke-linejoin="bevel" stroke-miterlimit="10" stroke-dasharray=""/><path fill="rgb(99,197,218)" stroke="rgb(0,0,0)" paint-order="fill" d="M 251.4499969482422 263.7230224609375 L 372.54998779296875 263.7230224609375 L 372.54998779296875 240.78419494628906 L 251.4499969482422 240.78419494628906 L 251.4499969482422 263.7230224609375" fill-opacity="1" clip-path="url(#LEPkTsacyuNe)" stroke-opacity="1" stroke-linejoin="bevel" stroke-miterlimit="10" stroke-dasharray=""/><path fill="rgb(99,197,218)" stroke="rgb(0,0,0)" paint-order="fill" d="M 424.45001220703125 185.0756072998047 L 545.5499877929688 185.0756072998047 L 545.5499877929688 185.0756072998047 L 424.45001220703125 185.0756072998047 L 424.45001220703125 185.0756072998047" fill-opacity="1" clip-path="url(#LEPkTsacyuNe)" stroke-opacity="1" stroke-linejoin="bevel" stroke-miterlimit="10" stroke-dasharray=""/><path fill="rgb(99,197,218)" stroke="rgb(0,0,0)" paint-order="fill" d="M 597.4500122070312 191.6295623779297 L 718.5499877929688 191.6295623779297 L 718.5499877929688 171.96771240234375 L 597.4500122070312 171.96771240234375 L 597.4500122070312 191.6295623779297" fill-opacity="1" clip-path="url(#LEPkTsacyuNe)" stroke-opacity="1" stroke-linejoin="bevel" stroke-miterlimit="10" stroke-dasharray=""/><path fill="rgb(99,197,218)" stroke="rgb(0,0,0)" paint-order="fill" d="M 770.4500122070312 191.6295623779297 L 891.5499877929688 191.6295623779297 L 891.5499877929688 139.1979522705078 L 770.4500122070312 139.1979522705078 L 770.4500122070312 191.6295623779297" fill-opacity="1" clip-path="url(#LEPkTsacyuNe)" stroke-opacity="1" stroke-linejoin="bevel" stroke-miterlimit="10" stroke-dasharray=""/><path fill="rgb(99,197,218)" stroke="rgb(0,0,0)" paint-order="fill" d="M 943.4500122070312 211.29141235351562 L 1064.550048828125 211.29141235351562 L 1064.550048828125 191.6295623779297 L 943.4500122070312 191.6295623779297 L 943.4500122070312 211.29141235351562" fill-opacity="1" clip-path="url(#LEPkTsacyuNe)" stroke-opacity="1" stroke-linejoin="bevel" stroke-miterlimit="10" stroke-dasharray=""/><path fill="rgb(99,197,218)" stroke="rgb(0,0,0)" paint-order="fill" d="M 1116.449951171875 224.39932250976562 L 1237.550048828125 224.39932250976562 L 1237.550048828125 191.6295623779297 L 1116.449951171875 191.6295623779297 L 1116.449951171875 224.39932250976562" fill-opacity="1" clip-path="url(#LEPkTsacyuNe)" stroke-opacity="1" stroke-linejoin="bevel" stroke-miterlimit="10" stroke-dasharray=""/><path fill="rgb(99,197,218)" stroke="rgb(0,0,0)" paint-order="fill" d="M 1289.449951171875 224.39932250976562 L 1410.550048828125 224.39932250976562 L 1410.550048828125 224.39932250976562 L 1289.449951171875 224.39932250976562 L 1289.449951171875 224.39932250976562" fill-opacity="1" clip-path="url(#LEPkTsacyuNe)" stroke-opacity="1" stroke-linejoin="bevel" stroke-miterlimit="10" stroke-dasharray=""/><path fill="rgb(99,197,218)" stroke="rgb(0,0,0)" paint-order="fill" d="M 78.44999694824219 368.58624267578125 L 199.5500030517578 368.58624267578125 L 199.5500030517578 355.47833251953125 L 78.44999694824219 355.47833251953125 L 78.44999694824219 368.58624267578125" fill-opacity="1" clip-path="url(#qDUeRkTFHfbi)" stroke-opacity="1" stroke-linejoin="bevel" stroke-miterlimit="10" stroke-dasharray=""/><path fill="rgb(99,197,218)" stroke="rgb(0,0,0)" paint-order="fill" d="M 251.4499969482422 281.74639892578125 L 372.54998779296875 281.74639892578125 L 372.54998779296875 263.7230224609375 L 251.4499969482422 263.7230224609375 L 251.4499969482422 281.74639892578125" fill-opacity="1" clip-path="url(#qDUeRkTFHfbi)" stroke-opacity="1" stroke-linejoin="bevel" stroke-miterlimit="10" stroke-dasharray=""/><path fill="rgb(99,197,218)" stroke="rgb(0,0,0)" paint-order="fill" d="M 424.45001220703125 185.0756072998047 L 545.5499877929688 185.0756072998047 L 545.5499877929688 185.0756072998047 L 424.45001220703125 185.0756072998047 L 424.45001220703125 185.0756072998047" fill-opacity="1" clip-path="url(#qDUeRkTFHfbi)" stroke-opacity="1" stroke-linejoin="bevel" stroke-miterlimit="10" stroke-dasharray=""/><path fill="rgb(99,197,218)" stroke="rgb(0,0,0)" paint-order="fill" d="M 597.4500122070312 217.84536743164062 L 718.5499877929688 217.84536743164062 L 718.5499877929688 191.6295623779297 L 597.4500122070312 191.6295623779297 L 597.4500122070312 217.84536743164062" fill-opacity="1" clip-path="url(#qDUeRkTFHfbi)" stroke-opacity="1" stroke-linejoin="bevel" stroke-miterlimit="10" stroke-dasharray=""/><path fill="rgb(99,197,218)" stroke="rgb(0,0,0)" paint-order="fill" d="M 770.4500122070312 214.56838989257812 L 891.5499877929688 214.56838989257812 L 891.5499877929688 191.6295623779297 L 770.4500122070312 191.6295623779297 L 770.4500122070312 214.56838989257812" fill-opacity="1" clip-path="url(#qDUeRkTFHfbi)" stroke-opacity="1" stroke-linejoin="bevel" stroke-miterlimit="10" stroke-dasharray=""/><path fill="rgb(99,197,218)" stroke="rgb(0,0,0)" paint-order="fill" d="M 943.4500122070312 237.50721740722656 L 1064.550048828125 237.50721740722656 L 1064.550048828125 211.29141235351562 L 943.4500122070312 211.29141235351562 L 943.4500122070312 237.50721740722656" fill-opacity="1" clip-path="url(#qDUeRkTFHfbi)" stroke-opacity="1" stroke-linejoin="bevel" stroke-miterlimit="10" stroke-dasharray=""/><path fill="rgb(99,197,218)" stroke="rgb(0,0,0)" paint-order="fill" d="M 1116.449951171875 250.61512756347656 L 1237.550048828125 250.61512756347656 L 1237.550048828125 224.39932250976562 L 1116.449951171875 224.39932250976562 L 1116.449951171875 250.61512756347656" fill-opacity="1" clip-path="url(#qDUeRkTFHfbi)" stroke-opacity="1" stroke-linejoin="bevel" stroke-miterlimit="10" stroke-dasharray=""/><path fill="rgb(99,197,218)" stroke="rgb(0,0,0)" paint-order="fill" d="M 1289.449951171875 224.39932250976562 L 1410.550048828125 224.39932250976562 L 1410.550048828125 224.39932250976562 L 1289.449951171875 224.39932250976562 L 1289.449951171875 224.39932250976562" fill-opacity="1" clip-path="url(#qDUeRkTFHfbi)" stroke-opacity="1" stroke-linejoin="bevel" stroke-miterlimit="10" stroke-dasharray=""/><path fill="rgb(48,162,218)" stroke="rgb(0,0,0)" paint-order="fill" d="M 141.73265075683594 348.92437744140625 A 6 6 0 0 1 129.73265075683594 348.92437744140625 A 6 6 0 0 1 141.73265075683594 348.92437744140625" fill-opacity="1" clip-path="url(#lvWxTmGCxZVT)" stroke-opacity="1" stroke-linejoin="bevel" stroke-miterlimit="10" stroke-dasharray=""/><path fill="rgb(48,162,218)" stroke="rgb(0,0,0)" paint-order="fill" d="M 319.6136474609375 283.3848876953125 A 6 6 0 0 1 307.6136474609375 283.3848876953125 A 6 6 0 0 1 319.6136474609375 283.3848876953125" fill-opacity="1" clip-path="url(#lvWxTmGCxZVT)" stroke-opacity="1" stroke-linejoin="bevel" stroke-miterlimit="10" stroke-dasharray=""/><path fill="rgb(48,162,218)" stroke="rgb(0,0,0)" paint-order="fill" d="M 840.5206298828125 204.73745727539062 A 6 6 0 0 1 828.5206298828125 204.73745727539062 A 6 6 0 0 1 840.5206298828125 204.73745727539062" fill-opacity="1" clip-path="url(#lvWxTmGCxZVT)" stroke-opacity="1" stroke-linejoin="bevel" stroke-miterlimit="10" stroke-dasharray=""/><path fill="rgb(48,162,218)" stroke="rgb(0,0,0)" paint-order="fill" d="M 1182.1143798828125 158.85980224609375 A 6 6 0 0 1 1170.1143798828125 158.85980224609375 A 6 6 0 0 1 1182.1143798828125 158.85980224609375" fill-opacity="1" clip-path="url(#lvWxTmGCxZVT)" stroke-opacity="1" stroke-linejoin="bevel" stroke-miterlimit="10" stroke-dasharray=""/><path fill="rgb(48,162,218)" stroke="rgb(0,0,0)" paint-order="fill" d="M 1346.8505859375 224.39932250976562 A 6 6 0 0 1 1334.8505859375 224.39932250976562 A 6 6 0 0 1 1346.8505859375 224.39932250976562" fill-opacity="1" clip-path="url(#lvWxTmGCxZVT)" stroke-opacity="1" stroke-linejoin="bevel" stroke-miterlimit="10" stroke-dasharray=""/><path fill="rgb(252,79,48)" stroke="rgb(0,0,0)" paint-order="fill" d="M 137.69387817382812 368.58624267578125 A 6 6 0 0 1 125.69387817382812 368.58624267578125 A 6 6 0 0 1 137.69387817382812 368.58624267578125" fill-opacity="1" clip-path="url(#dUyLcGxwfBfL)" stroke-opacity="1" stroke-linejoin="bevel" stroke-miterlimit="10" stroke-dasharray=""/><path fill="rgb(252,79,48)" stroke="rgb(0,0,0)" paint-order="fill" d="M 327.3304443359375 283.3848876953125 A 6 6 0 0 1 315.3304443359375 283.3848876953125 A 6 6 0 0 1 327.3304443359375 283.3848876953125" fill-opacity="1" clip-path="url(#dUyLcGxwfBfL)" stroke-opacity="1" stroke-linejoin="bevel" stroke-miterlimit="10" stroke-dasharray=""/><path fill="rgb(252,79,48)" stroke="rgb(0,0,0)" paint-order="fill" d="M 828.8700561523438 224.39932250976562 A 6 6 0 0 1 816.8700561523438 224.39932250976562 A 6 6 0 0 1 828.8700561523438 224.39932250976562" fill-opacity="1" clip-path="url(#dUyLcGxwfBfL)" stroke-opacity="1" stroke-linejoin="bevel" stroke-miterlimit="10" stroke-dasharray=""/><path fill="rgb(252,79,48)" stroke="rgb(0,0,0)" paint-order="fill" d="M 995.4364013671875 211.29141235351562 A 6 6 0 0 1 983.4364013671875 211.29141235351562 A 6 6 0 0 1 995.4364013671875 211.29141235351562" fill-opacity="1" clip-path="url(#dUyLcGxwfBfL)" stroke-opacity="1" stroke-linejoin="bevel" stroke-miterlimit="10" stroke-dasharray=""/><path fill="rgb(229,174,56)" stroke="rgb(0,0,0)" paint-order="fill" d="M 143.67478942871094 322.7085876464844 A 6 6 0 0 1 131.67478942871094 322.7085876464844 A 6 6 0 0 1 143.67478942871094 322.7085876464844" fill-opacity="1" clip-path="url(#shcxtCRPiQuc)" stroke-opacity="1" stroke-linejoin="bevel" stroke-miterlimit="10" stroke-dasharray=""/><path fill="rgb(229,174,56)" stroke="rgb(0,0,0)" paint-order="fill" d="M 314.0772705078125 276.8309326171875 A 6 6 0 0 1 302.0772705078125 276.8309326171875 A 6 6 0 0 1 314.0772705078125 276.8309326171875" fill-opacity="1" clip-path="url(#shcxtCRPiQuc)" stroke-opacity="1" stroke-linejoin="bevel" stroke-miterlimit="10" stroke-dasharray=""/><path fill="rgb(229,174,56)" stroke="rgb(0,0,0)" paint-order="fill" d="M 677.907470703125 257.1690673828125 A 6 6 0 0 1 665.907470703125 257.1690673828125 A 6 6 0 0 1 677.907470703125 257.1690673828125" fill-opacity="1" clip-path="url(#shcxtCRPiQuc)" stroke-opacity="1" stroke-linejoin="bevel" stroke-miterlimit="10" stroke-dasharray=""/><path fill="rgb(229,174,56)" stroke="rgb(0,0,0)" paint-order="fill" d="M 851.6928100585938 250.61512756347656 A 6 6 0 0 1 839.6928100585938 250.61512756347656 A 6 6 0 0 1 851.6928100585938 250.61512756347656" fill-opacity="1" clip-path="url(#shcxtCRPiQuc)" stroke-opacity="1" stroke-linejoin="bevel" stroke-miterlimit="10" stroke-dasharray=""/><path fill="rgb(229,174,56)" stroke="rgb(0,0,0)" paint-order="fill" d="M 1010.6439208984375 263.7230224609375 A 6 6 0 0 1 998.6439208984375 263.7230224609375 A 6 6 0 0 1 1010.6439208984375 263.7230224609375" fill-opacity="1" clip-path="url(#shcxtCRPiQuc)" stroke-opacity="1" stroke-linejoin="bevel" stroke-miterlimit="10" stroke-dasharray=""/><path fill="rgb(229,174,56)" stroke="rgb(0,0,0)" paint-order="fill" d="M 1176.8834228515625 276.8309326171875 A 6 6 0 0 1 1164.8834228515625 276.8309326171875 A 6 6 0 0 1 1176.8834228515625 276.8309326171875" fill-opacity="1" clip-path="url(#shcxtCRPiQuc)" stroke-opacity="1" stroke-linejoin="bevel" stroke-miterlimit="10" stroke-dasharray=""/><path fill="rgb(109,144,79)" stroke="rgb(0,0,0)" paint-order="fill" d="M 146.45091247558594 414.4638977050781 A 6 6 0 0 1 134.45091247558594 414.4638977050781 A 6 6 0 0 1 146.45091247558594 414.4638977050781" fill-opacity="1" clip-path="url(#ZAlUQSxzJTKF)" stroke-opacity="1" stroke-linejoin="bevel" stroke-miterlimit="10" stroke-dasharray=""/><path fill="rgb(109,144,79)" stroke="rgb(0,0,0)" paint-order="fill" d="M 310.0778503417969 237.50721740722656 A 6 6 0 0 1 298.0778503417969 237.50721740722656 A 6 6 0 0 1 310.0778503417969 237.50721740722656" fill-opacity="1" clip-path="url(#ZAlUQSxzJTKF)" stroke-opacity="1" stroke-linejoin="bevel" stroke-miterlimit="10" stroke-dasharray=""/><path fill="rgb(109,144,79)" stroke="rgb(0,0,0)" paint-order="fill" d="M 647.77587890625 171.96771240234375 A 6 6 0 0 1 635.77587890625 171.96771240234375 A 6 6 0 0 1 647.77587890625 171.96771240234375" fill-opacity="1" clip-path="url(#ZAlUQSxzJTKF)" stroke-opacity="1" stroke-linejoin="bevel" stroke-miterlimit="10" stroke-dasharray=""/><path fill="rgb(109,144,79)" stroke="rgb(0,0,0)" paint-order="fill" d="M 820.2666625976562 119.53609466552734 A 6 6 0 0 1 808.2666625976562 119.53609466552734 A 6 6 0 0 1 820.2666625976562 119.53609466552734" fill-opacity="1" clip-path="url(#ZAlUQSxzJTKF)" stroke-opacity="1" stroke-linejoin="bevel" stroke-miterlimit="10" stroke-dasharray=""/><path fill="rgb(139,139,139)" stroke="rgb(0,0,0)" paint-order="fill" d="M 149.42352294921875 421.0178527832031 A 6 6 0 0 1 137.42352294921875 421.0178527832031 A 6 6 0 0 1 149.42352294921875 421.0178527832031" fill-opacity="1" clip-path="url(#xVRhiMylmklo)" stroke-opacity="1" stroke-linejoin="bevel" stroke-miterlimit="10" stroke-dasharray=""/><path fill="rgb(139,139,139)" stroke="rgb(0,0,0)" paint-order="fill" d="M 329.1915283203125 250.61512756347656 A 6 6 0 0 1 317.1915283203125 250.61512756347656 A 6 6 0 0 1 329.1915283203125 250.61512756347656" fill-opacity="1" clip-path="url(#xVRhiMylmklo)" stroke-opacity="1" stroke-linejoin="bevel" stroke-miterlimit="10" stroke-dasharray=""/><path fill="rgb(139,139,139)" stroke="rgb(0,0,0)" paint-order="fill" d="M 670.412353515625 217.84536743164062 A 6 6 0 0 1 658.412353515625 217.84536743164062 A 6 6 0 0 1 670.412353515625 217.84536743164062" fill-opacity="1" clip-path="url(#xVRhiMylmklo)" stroke-opacity="1" stroke-linejoin="bevel" stroke-miterlimit="10" stroke-dasharray=""/><path fill="rgb(139,139,139)" stroke="rgb(0,0,0)" paint-order="fill" d="M 849.2488403320312 158.85980224609375 A 6 6 0 0 1 837.2488403320312 158.85980224609375 A 6 6 0 0 1 849.2488403320312 158.85980224609375" fill-opacity="1" clip-path="url(#xVRhiMylmklo)" stroke-opacity="1" stroke-linejoin="bevel" stroke-miterlimit="10" stroke-dasharray=""/><path fill="rgb(23,190,207)" stroke="rgb(0,0,0)" paint-order="fill" d="M 145.9697265625 322.7085876464844 A 6 6 0 0 1 133.9697265625 322.7085876464844 A 6 6 0 0 1 145.9697265625 322.7085876464844" fill-opacity="1" clip-path="url(#iDiNATtkTxny)" stroke-opacity="1" stroke-linejoin="bevel" stroke-miterlimit="10" stroke-dasharray=""/><path fill="rgb(23,190,207)" stroke="rgb(0,0,0)" paint-order="fill" d="M 1167.4127197265625 224.39932250976562 A 6 6 0 0 1 1155.4127197265625 224.39932250976562 A 6 6 0 0 1 1167.4127197265625 224.39932250976562" fill-opacity="1" clip-path="url(#iDiNATtkTxny)" stroke-opacity="1" stroke-linejoin="bevel" stroke-miterlimit="10" stroke-dasharray=""/><path fill="rgb(148,103,189)" stroke="rgb(0,0,0)" paint-order="fill" d="M 148.78237915039062 322.7085876464844 A 6 6 0 0 1 136.78237915039062 322.7085876464844 A 6 6 0 0 1 148.78237915039062 322.7085876464844" fill-opacity="1" clip-path="url(#iMSMtWLkWABu)" stroke-opacity="1" stroke-linejoin="bevel" stroke-miterlimit="10" stroke-dasharray=""/><path fill="rgb(148,103,189)" stroke="rgb(0,0,0)" paint-order="fill" d="M 500.6729431152344 185.0756072998047 A 6 6 0 0 1 488.6729431152344 185.0756072998047 A 6 6 0 0 1 500.6729431152344 185.0756072998047" fill-opacity="1" clip-path="url(#iMSMtWLkWABu)" stroke-opacity="1" stroke-linejoin="bevel" stroke-miterlimit="10" stroke-dasharray=""/><path fill="rgb(148,103,189)" stroke="rgb(0,0,0)" paint-order="fill" d="M 837.4492797851562 191.6295623779297 A 6 6 0 0 1 825.4492797851562 191.6295623779297 A 6 6 0 0 1 837.4492797851562 191.6295623779297" fill-opacity="1" clip-path="url(#iMSMtWLkWABu)" stroke-opacity="1" stroke-linejoin="bevel" stroke-miterlimit="10" stroke-dasharray=""/><path fill="rgb(214,39,40)" stroke="rgb(0,0,0)" paint-order="fill" d="M 148.41111755371094 362.03228759765625 A 6 6 0 0 1 136.41111755371094 362.03228759765625 A 6 6 0 0 1 148.41111755371094 362.03228759765625" fill-opacity="1" clip-path="url(#dggWDPVXHxmc)" stroke-opacity="1" stroke-linejoin="bevel" stroke-miterlimit="10" stroke-dasharray=""/><path fill="rgb(214,39,40)" stroke="rgb(0,0,0)" paint-order="fill" d="M 316.5899353027344 178.5216522216797 A 6 6 0 0 1 304.5899353027344 178.5216522216797 A 6 6 0 0 1 316.5899353027344 178.5216522216797" fill-opacity="1" clip-path="url(#dggWDPVXHxmc)" stroke-opacity="1" stroke-linejoin="bevel" stroke-miterlimit="10" stroke-dasharray=""/><path fill="rgb(214,39,40)" stroke="rgb(0,0,0)" paint-order="fill" d="M 672.6279907226562 145.75189208984375 A 6 6 0 0 1 660.6279907226562 145.75189208984375 A 6 6 0 0 1 672.6279907226562 145.75189208984375" fill-opacity="1" clip-path="url(#dggWDPVXHxmc)" stroke-opacity="1" stroke-linejoin="bevel" stroke-miterlimit="10" stroke-dasharray=""/><path fill="rgb(214,39,40)" stroke="rgb(0,0,0)" paint-order="fill" d="M 827.4008178710938 112.98213958740234 A 6 6 0 0 1 815.4008178710938 112.98213958740234 A 6 6 0 0 1 827.4008178710938 112.98213958740234" fill-opacity="1" clip-path="url(#dggWDPVXHxmc)" stroke-opacity="1" stroke-linejoin="bevel" stroke-miterlimit="10" stroke-dasharray=""/><path fill="rgb(31,119,180)" stroke="rgb(0,0,0)" paint-order="fill" d="M 158.7496795654297 355.47833251953125 A 6 6 0 0 1 146.7496795654297 355.47833251953125 A 6 6 0 0 1 158.7496795654297 355.47833251953125" fill-opacity="1" clip-path="url(#UoDNkvMHQZfh)" stroke-opacity="1" stroke-linejoin="bevel" stroke-miterlimit="10" stroke-dasharray=""/><path fill="rgb(31,119,180)" stroke="rgb(0,0,0)" paint-order="fill" d="M 649.8636474609375 191.6295623779297 A 6 6 0 0 1 637.8636474609375 191.6295623779297 A 6 6 0 0 1 649.8636474609375 191.6295623779297" fill-opacity="1" clip-path="url(#UoDNkvMHQZfh)" stroke-opacity="1" stroke-linejoin="bevel" stroke-miterlimit="10" stroke-dasharray=""/><path fill="rgb(31,119,180)" stroke="rgb(0,0,0)" paint-order="fill" d="M 1013.4002685546875 171.96771240234375 A 6 6 0 0 1 1001.4002685546875 171.96771240234375 A 6 6 0 0 1 1013.4002685546875 171.96771240234375" fill-opacity="1" clip-path="url(#UoDNkvMHQZfh)" stroke-opacity="1" stroke-linejoin="bevel" stroke-miterlimit="10" stroke-dasharray=""/><path fill="none" stroke="rgb(0,0,0)" paint-order="fill" d="M 52.5 439.5 L 1436.5 439.5" stroke-opacity="1" stroke-linejoin="bevel" stroke-miterlimit="10" stroke-dasharray=""/><path fill="none" stroke="rgb(0,0,0)" paint-order="fill" d="M 139.5 445.5 L 139.5 437.5 M 312.5 445.5 L 312.5 437.5 M 485.5 445.5 L 485.5 437.5 M 658.5 445.5 L 658.5 437.5 M 831.5 445.5 L 831.5 437.5 M 1004.5 445.5 L 1004.5 437.5 M 1177.5 445.5 L 1177.5 437.5 M 1350.5 445.5 L 1350.5 437.5" stroke-opacity="1" stroke-linejoin="bevel" stroke-miterlimit="10" stroke-dasharray=""/><path fill="none" stroke="rgb(0,0,0)" paint-order="fill" d="" stroke-opacity="1" stroke-linejoin="bevel" stroke-miterlimit="10" stroke-dasharray=""/><text fill="rgb(68,68,68)" stroke="none" font-family="helvetica" font-size="11pt" font-style="normal" font-weight="normal" text-decoration="normal" x="109.15833282470703" y="463.9361979166667" text-anchor="start" dominant-baseline="alphabetic" transform="matrix(1, 0, 0, 1, 0.5, 0.5)" fill-opacity="1">piControl</text><text fill="rgb(68,68,68)" stroke="none" font-family="helvetica" font-size="11pt" font-style="normal" font-weight="normal" text-decoration="normal" x="269.125" y="463.9361979166667" text-anchor="start" dominant-baseline="alphabetic" transform="matrix(1, 0, 0, 1, 0.5, 0.5)" fill-opacity="1">DeepMIP_1x</text><text fill="rgb(68,68,68)" stroke="none" font-family="helvetica" font-size="11pt" font-style="normal" font-weight="normal" text-decoration="normal" x="436.0166664123535" y="463.9361979166667" text-anchor="start" dominant-baseline="alphabetic" transform="matrix(1, 0, 0, 1, 0.5, 0.5)" fill-opacity="1">DeepMIP_1.5x</text><text fill="rgb(68,68,68)" stroke="none" font-family="helvetica" font-size="11pt" font-style="normal" font-weight="normal" text-decoration="normal" x="615.125" y="463.9361979166667" text-anchor="start" dominant-baseline="alphabetic" transform="matrix(1, 0, 0, 1, 0.5, 0.5)" fill-opacity="1">DeepMIP_2x</text><text fill="rgb(68,68,68)" stroke="none" font-family="helvetica" font-size="11pt" font-style="normal" font-weight="normal" text-decoration="normal" x="788.125" y="463.9361979166667" text-anchor="start" dominant-baseline="alphabetic" transform="matrix(1, 0, 0, 1, 0.5, 0.5)" fill-opacity="1">DeepMIP_3x</text><text fill="rgb(68,68,68)" stroke="none" font-family="helvetica" font-size="11pt" font-style="normal" font-weight="normal" text-decoration="normal" x="961.125" y="463.9361979166667" text-anchor="start" dominant-baseline="alphabetic" transform="matrix(1, 0, 0, 1, 0.5, 0.5)" fill-opacity="1">DeepMIP_4x</text><text fill="rgb(68,68,68)" stroke="none" font-family="helvetica" font-size="11pt" font-style="normal" font-weight="normal" text-decoration="normal" x="1134.125" y="463.9361979166667" text-anchor="start" dominant-baseline="alphabetic" transform="matrix(1, 0, 0, 1, 0.5, 0.5)" fill-opacity="1">DeepMIP_6x</text><text fill="rgb(68,68,68)" stroke="none" font-family="helvetica" font-size="11pt" font-style="normal" font-weight="normal" text-decoration="normal" x="1307.125" y="463.9361979166667" text-anchor="start" dominant-baseline="alphabetic" transform="matrix(1, 0, 0, 1, 0.5, 0.5)" fill-opacity="1">DeepMIP_9x</text><text fill="rgb(68,68,68)" stroke="none" font-family="helvetica" font-size="14pt" font-style="italic" font-weight="normal" text-decoration="normal" x="656.3249969482422" y="493.0813822428386" text-anchor="start" dominant-baseline="alphabetic" transform="matrix(1, 0, 0, 1, 0.5, 0.5)" fill-opacity="1">DeepMIP experiment</text><path fill="none" stroke="rgb(0,0,0)" paint-order="fill" d="M 52.5 439.5 L 52.5 94.5" stroke-opacity="1" stroke-linejoin="bevel" stroke-miterlimit="10" stroke-dasharray=""/><path fill="none" stroke="rgb(0,0,0)" paint-order="fill" d="M 46.5 381.5 L 54.5 381.5 M 46.5 316.5 L 54.5 316.5 M 46.5 250.5 L 54.5 250.5 M 46.5 185.5 L 54.5 185.5 M 46.5 119.5 L 54.5 119.5" stroke-opacity="1" stroke-linejoin="bevel" stroke-miterlimit="10" stroke-dasharray=""/><path fill="none" stroke="rgb(0,0,0)" paint-order="fill" d="M 48.5 394.5 L 52.5 394.5 M 48.5 407.5 L 52.5 407.5 M 48.5 421.5 L 52.5 421.5 M 48.5 434.5 L 52.5 434.5 M 48.5 381.5 L 52.5 381.5 M 48.5 368.5 L 52.5 368.5 M 48.5 355.5 L 52.5 355.5 M 48.5 342.5 L 52.5 342.5 M 48.5 329.5 L 52.5 329.5 M 48.5 316.5 L 52.5 316.5 M 48.5 303.5 L 52.5 303.5 M 48.5 289.5 L 52.5 289.5 M 48.5 276.5 L 52.5 276.5 M 48.5 263.5 L 52.5 263.5 M 48.5 250.5 L 52.5 250.5 M 48.5 237.5 L 52.5 237.5 M 48.5 224.5 L 52.5 224.5 M 48.5 211.5 L 52.5 211.5 M 48.5 198.5 L 52.5 198.5 M 48.5 185.5 L 52.5 185.5 M 48.5 171.5 L 52.5 171.5 M 48.5 158.5 L 52.5 158.5 M 48.5 145.5 L 52.5 145.5 M 48.5 132.5 L 52.5 132.5 M 48.5 119.5 L 52.5 119.5 M 48.5 106.5 L 52.5 106.5" stroke-opacity="1" stroke-linejoin="bevel" stroke-miterlimit="10" stroke-dasharray=""/><text fill="rgb(68,68,68)" stroke="none" font-family="helvetica" font-size="11pt" font-style="normal" font-weight="normal" text-decoration="normal" x="32.85000038146973" y="386.4542439778646" text-anchor="start" dominant-baseline="alphabetic" transform="matrix(1, 0, 0, 1, 0.5, 0.5)" fill-opacity="1">3</text><text fill="rgb(68,68,68)" stroke="none" font-family="helvetica" font-size="11pt" font-style="normal" font-weight="normal" text-decoration="normal" x="32.85000038146973" y="320.91472371419275" text-anchor="start" dominant-baseline="alphabetic" transform="matrix(1, 0, 0, 1, 0.5, 0.5)" fill-opacity="1">4</text><text fill="rgb(68,68,68)" stroke="none" font-family="helvetica" font-size="11pt" font-style="normal" font-weight="normal" text-decoration="normal" x="32.85000038146973" y="255.37521870930988" text-anchor="start" dominant-baseline="alphabetic" transform="matrix(1, 0, 0, 1, 0.5, 0.5)" fill-opacity="1">5</text><text fill="rgb(68,68,68)" stroke="none" font-family="helvetica" font-size="11pt" font-style="normal" font-weight="normal" text-decoration="normal" x="32.85000038146973" y="189.835698445638" text-anchor="start" dominant-baseline="alphabetic" transform="matrix(1, 0, 0, 1, 0.5, 0.5)" fill-opacity="1">6</text><text fill="rgb(68,68,68)" stroke="none" font-family="helvetica" font-size="11pt" font-style="normal" font-weight="normal" text-decoration="normal" x="32.85000038146973" y="124.29618581136069" text-anchor="start" dominant-baseline="alphabetic" transform="matrix(1, 0, 0, 1, 0.5, 0.5)" fill-opacity="1">7</text><text fill="rgb(68,68,68)" stroke="none" font-family="helvetica" font-size="14pt" font-style="italic" font-weight="normal" text-decoration="normal" x="-33.22500038146973" y="262.37109375" text-anchor="start" dominant-baseline="alphabetic" transform="matrix(6.123233995736766e-17, -1, 1, 6.123233995736766e-17, -241.14999961853027, 291.8500003814697)" fill-opacity="1">DJF [mm/day]</text><path fill="rgb(255,255,255)" stroke="rgb(229,229,229)" paint-order="fill" d="M 52.5 54.5 L 747.2666683197021 54.5 L 747.2666683197021 94.5 L 52.5 94.5 L 52.5 54.5" fill-opacity="0.9490196078431372" stroke-opacity="0.5019607843137255" stroke-linejoin="bevel" stroke-miterlimit="10" stroke-dasharray=""/><text fill="rgb(68,68,68)" stroke="none" font-family="helvetica" font-size="10.8pt" font-style="normal" font-weight="normal" text-decoration="normal" x="87" y="74" text-anchor="start" dominant-baseline="central" transform="matrix(1, 0, 0, 1, 0.5, 0.5)" fill-opacity="1">CESM</text><path fill="rgb(48,162,218)" stroke="rgb(0,0,0)" paint-order="fill" d="M 76.5 74.5 A 4 4 0 0 1 68.5 74.5 A 4 4 0 0 1 76.5 74.5" fill-opacity="1" stroke-opacity="1" stroke-linejoin="bevel" stroke-miterlimit="10" stroke-dasharray=""/><text fill="rgb(68,68,68)" stroke="none" font-family="helvetica" font-size="10.8pt" font-style="normal" font-weight="normal" text-decoration="normal" x="156.5999984741211" y="74" text-anchor="start" dominant-baseline="central" transform="matrix(1, 0, 0, 1, 0.5, 0.5)" fill-opacity="1">COSMOS</text><path fill="rgb(252,79,48)" stroke="rgb(0,0,0)" paint-order="fill" d="M 146.0999984741211 74.5 A 4 4 0 0 1 138.0999984741211 74.5 A 4 4 0 0 1 146.0999984741211 74.5" fill-opacity="1" stroke-opacity="1" stroke-linejoin="bevel" stroke-miterlimit="10" stroke-dasharray=""/><text fill="rgb(68,68,68)" stroke="none" font-family="helvetica" font-size="10.8pt" font-style="normal" font-weight="normal" text-decoration="normal" x="248.5999984741211" y="74" text-anchor="start" dominant-baseline="central" transform="matrix(1, 0, 0, 1, 0.5, 0.5)" fill-opacity="1">GFDL</text><path fill="rgb(229,174,56)" stroke="rgb(0,0,0)" paint-order="fill" d="M 238.0999984741211 74.5 A 4 4 0 0 1 230.0999984741211 74.5 A 4 4 0 0 1 238.0999984741211 74.5" fill-opacity="1" stroke-opacity="1" stroke-linejoin="bevel" stroke-miterlimit="10" stroke-dasharray=""/><text fill="rgb(68,68,68)" stroke="none" font-family="helvetica" font-size="10.8pt" font-style="normal" font-weight="normal" text-decoration="normal" x="315.0166664123535" y="74" text-anchor="start" dominant-baseline="central" transform="matrix(1, 0, 0, 1, 0.5, 0.5)" fill-opacity="1">HadCM3</text><path fill="rgb(109,144,79)" stroke="rgb(0,0,0)" paint-order="fill" d="M 304.5166664123535 74.5 A 4 4 0 0 1 296.5166664123535 74.5 A 4 4 0 0 1 304.5166664123535 74.5" fill-opacity="1" stroke-opacity="1" stroke-linejoin="bevel" stroke-miterlimit="10" stroke-dasharray=""/><text fill="rgb(68,68,68)" stroke="none" font-family="helvetica" font-size="10.8pt" font-style="normal" font-weight="normal" text-decoration="normal" x="399.8666648864746" y="74" text-anchor="start" dominant-baseline="central" transform="matrix(1, 0, 0, 1, 0.5, 0.5)" fill-opacity="1">HadCM3L</text><path fill="rgb(139,139,139)" stroke="rgb(0,0,0)" paint-order="fill" d="M 389.3666648864746 74.5 A 4 4 0 0 1 381.3666648864746 74.5 A 4 4 0 0 1 389.3666648864746 74.5" fill-opacity="1" stroke-opacity="1" stroke-linejoin="bevel" stroke-miterlimit="10" stroke-dasharray=""/><text fill="rgb(68,68,68)" stroke="none" font-family="helvetica" font-size="10.8pt" font-style="normal" font-weight="normal" text-decoration="normal" x="492.7333335876465" y="74" text-anchor="start" dominant-baseline="central" transform="matrix(1, 0, 0, 1, 0.5, 0.5)" fill-opacity="1">INM</text><path fill="rgb(23,190,207)" stroke="rgb(0,0,0)" paint-order="fill" d="M 482.2333335876465 74.5 A 4 4 0 0 1 474.2333335876465 74.5 A 4 4 0 0 1 482.2333335876465 74.5" fill-opacity="1" stroke-opacity="1" stroke-linejoin="bevel" stroke-miterlimit="10" stroke-dasharray=""/><text fill="rgb(68,68,68)" stroke="none" font-family="helvetica" font-size="10.8pt" font-style="normal" font-weight="normal" text-decoration="normal" x="547.1333332061768" y="74" text-anchor="start" dominant-baseline="central" transform="matrix(1, 0, 0, 1, 0.5, 0.5)" fill-opacity="1">IPSL</text><path fill="rgb(148,103,189)" stroke="rgb(0,0,0)" paint-order="fill" d="M 536.6333332061768 74.5 A 4 4 0 0 1 528.6333332061768 74.5 A 4 4 0 0 1 536.6333332061768 74.5" fill-opacity="1" stroke-opacity="1" stroke-linejoin="bevel" stroke-miterlimit="10" stroke-dasharray=""/><text fill="rgb(68,68,68)" stroke="none" font-family="helvetica" font-size="10.8pt" font-style="normal" font-weight="normal" text-decoration="normal" x="606.3500003814697" y="74" text-anchor="start" dominant-baseline="central" transform="matrix(1, 0, 0, 1, 0.5, 0.5)" fill-opacity="1">MIROC</text><path fill="rgb(214,39,40)" stroke="rgb(0,0,0)" paint-order="fill" d="M 595.8500003814697 74.5 A 4 4 0 0 1 587.8500003814697 74.5 A 4 4 0 0 1 595.8500003814697 74.5" fill-opacity="1" stroke-opacity="1" stroke-linejoin="bevel" stroke-miterlimit="10" stroke-dasharray=""/><text fill="rgb(68,68,68)" stroke="none" font-family="helvetica" font-size="10.8pt" font-style="normal" font-weight="normal" text-decoration="normal" x="682.3500003814697" y="74" text-anchor="start" dominant-baseline="central" transform="matrix(1, 0, 0, 1, 0.5, 0.5)" fill-opacity="1">NorESM</text><path fill="rgb(31,119,180)" stroke="rgb(0,0,0)" paint-order="fill" d="M 671.8500003814697 74.5 A 4 4 0 0 1 663.8500003814697 74.5 A 4 4 0 0 1 671.8500003814697 74.5" fill-opacity="1" stroke-opacity="1" stroke-linejoin="bevel" stroke-miterlimit="10" stroke-dasharray=""/><text fill="rgb(68,68,68)" stroke="none" font-family="helvetica" font-size="14pt" font-style="normal" font-weight="bold" text-decoration="normal" x="52" y="24.934895833333332" text-anchor="start" dominant-baseline="alphabetic" transform="matrix(1, 0, 0, 1, 0.5, 0.5)" fill-opacity="1">DeepMIP (~55 Ma) precipitation (LAT = 46.6 / LON = -5.6)</text></svg>